<?xml version="1.0" encoding="UTF-8"?><svg id="_イヤー_2" xmlns="http://www.w3.org/2000/svg" width="68.49" height="70.81" viewBox="0 0 68.49 70.81"><defs><style>.cls-1{fill:#333;}</style></defs><g id="_イヤー_1-2"><g><path class="cls-1" d="M34.68,63.62c0,1.85-1.5,3.36-3.36,3.36h-7.06c-1.85,0-3.36-1.5-3.36-3.36v-1.55c0-1.85,1.5-3.36,3.36-3.36h7.06c1.85,0,3.36,1.5,3.36,3.36v1.55Z"/><path class="cls-1" d="M3.95,50.57h-.59c-1.85,0-3.36,1.5-3.36,3.36v4.64c0,1.85,.86,3.36,2.34,3.36h.37c1.6,0,1.23,1.5,1.23,3.36v2.17c0,1.85,1.5,3.36,3.36,3.36h5.13c1.85,0,3.36-1.5,3.36-3.36v-13.52c0-1.85-1.5-3.36-3.36-3.36H3.95Z"/><path class="cls-1" d="M45.63,22.33c-1.58,0-2.95,1.1-3.28,2.64l-1.88,8.65c-.33,1.54-1.7,2.64-3.28,2.64H16.18c-1.85,0-3.36,1.5-3.36,3.36v2.54c0,1.85,1.5,3.36,3.36,3.36h.69c1.85,0,3.36,1.5,3.36,3.36v1.67c0,1.85,1.5,3.36,3.36,3.36h26.02c1.58,0,2.94-1.1,3.28-2.64l5.44-24.86c.22-.99-.03-2.03-.66-2.82-.64-.8-1.6-1.25-2.62-1.25h-9.4Z"/><path class="cls-1" d="M66.32,15.04c-.3,1.58-1.68,2.72-3.3,2.72h-14.59c-1,0-1.95-.44-2.58-1.21-.64-.77-.9-1.79-.71-2.77l2.11-11.05c.3-1.58,1.69-2.73,3.3-2.73h14.59c1,0,1.95,.45,2.58,1.22,.64,.77,.9,1.79,.71,2.77l-2.11,11.05Z"/></g></g></svg>