<?xml version="1.0" encoding="UTF-8"?><svg id="_イヤー_2" xmlns="http://www.w3.org/2000/svg" width="107.93" height="60.18" viewBox="0 0 107.93 60.18"><defs><style>.cls-1{fill:#333;}</style></defs><g id="_イヤー_1-2"><g><path class="cls-1" d="M9.13,9.36L1.29,31.4c-.78,1.86-1.29,4.87-1.29,6.3v8.69c0,2.36,1.93,4.3,4.3,4.3h5.14c.52,5.33,5.01,9.49,10.47,9.49s9.96-4.16,10.47-9.49h9.51V5.59H15.47c-2.36,0-5.22,1.7-6.34,3.77Zm10.78,45.56c-2.91,0-5.26-2.36-5.26-5.26s2.36-5.26,5.26-5.26,5.26,2.35,5.26,5.26-2.36,5.26-5.26,5.26ZM34.95,11.19V27.95H9.88l4.93-15.1c.43-.8,1.9-1.67,2.8-1.67h17.34Z"/><path class="cls-1" d="M45.91,0V50.69h31.01c.51,5.33,5,9.49,10.47,9.49s9.95-4.16,10.48-9.49h10.06V0H45.91Zm41.48,54.92c-2.91,0-5.26-2.36-5.26-5.26s2.36-5.26,5.26-5.26,5.26,2.35,5.26,5.26-2.36,5.26-5.26,5.26Z"/></g></g></svg>