<?xml version="1.0" encoding="UTF-8"?><svg id="_イヤー_2" xmlns="http://www.w3.org/2000/svg" width="76.44" height="60" viewBox="0 0 76.44 60"><defs><style>.cls-1{fill:#333;}</style></defs><g id="_イヤー_1-2"><path class="cls-1" d="M76.24,8.54c-.34-1.74-1.11-3.32-2.19-4.64-.23-.29-.46-.54-.72-.8-1.9-1.91-4.58-3.11-7.5-3.11H10.6C7.68,0,5.02,1.19,3.11,3.11c-.26,.26-.49,.51-.72,.8C1.31,5.22,.54,6.81,.21,8.54c-.14,.67-.21,1.36-.21,2.06V49.4c0,1.49,.32,2.92,.88,4.21,.52,1.23,1.29,2.35,2.23,3.28,.24,.24,.47,.45,.73,.67,1.83,1.52,4.2,2.44,6.77,2.44h55.23c2.56,0,4.94-.92,6.77-2.45,.26-.21,.49-.42,.73-.66,.94-.94,1.71-2.05,2.24-3.28h0c.56-1.3,.87-2.72,.87-4.21V10.6c0-.7-.07-1.39-.2-2.06ZM6.94,6.94c.95-.95,2.22-1.52,3.66-1.52h55.23c1.44,0,2.72,.57,3.66,1.52,.17,.17,.33,.36,.46,.54l-28.95,25.23c-.8,.7-1.78,1.05-2.79,1.05s-1.98-.35-2.79-1.05L6.49,7.48c.13-.19,.29-.36,.45-.53Zm-1.52,42.45V13.09L26.38,31.37,5.44,49.62c-.01-.07-.01-.15-.01-.23Zm60.41,5.18H10.6c-.94,0-1.82-.25-2.56-.68l22.09-19.25,2.06,1.79c1.73,1.5,3.89,2.26,6.03,2.26s4.31-.76,6.04-2.26l2.06-1.79,22.08,19.25c-.75,.43-1.63,.68-2.57,.68Zm5.18-5.18c0,.08,0,.16-.01,.23l-20.94-18.25,20.95-18.28V49.4Z"/></g></svg>