<?xml version="1.0" encoding="UTF-8"?><svg id="_イヤー_2" xmlns="http://www.w3.org/2000/svg" width="70" height="70" viewBox="0 0 70 70"><defs><style>.cls-1{fill:#333;}</style></defs><g id="_イヤー_1-2"><g><path class="cls-1" d="M35,5.83c16.08,0,29.17,13.08,29.17,29.17s-13.08,29.17-29.17,29.17S5.83,51.08,5.83,35,18.92,5.83,35,5.83m0-5.83C15.67,0,0,15.67,0,35s15.67,35,35,35,35-15.67,35-35S54.33,0,35,0h0Z"/><path class="cls-1" d="M48.6,19.17c.54,0,.96,.23,1.24,.71s.29,.94,0,1.39l-6.93,12.15c-.06,.06-.06,.12-.02,.19s.11,.11,.19,.11h2.4c.66,0,1.21,.23,1.67,.68,.46,.46,.68,1.01,.68,1.67s-.23,1.21-.68,1.67c-.46,.46-1.01,.68-1.67,.68h-5.05c-.29,0-.47,.11-.56,.34-.06,.17-.09,.33-.09,.47v1.41c0,.23,.13,.34,.38,.34h5.3c.66,0,1.21,.23,1.67,.68,.46,.46,.68,1.01,.68,1.67s-.23,1.21-.68,1.67c-.46,.46-1.01,.68-1.67,.68h-5.3c-.26,0-.38,.13-.38,.38v1.88c0,.66-.24,1.23-.71,1.71-.47,.49-1.03,.73-1.69,.73h-3.94c-.66,0-1.22-.24-1.69-.73-.47-.48-.71-1.05-.71-1.71v-1.88c0-.26-.13-.38-.38-.38h-5.3c-.66,0-1.21-.23-1.67-.68-.46-.46-.69-1.01-.69-1.67s.23-1.21,.69-1.67c.46-.46,1.01-.68,1.67-.68h5.3c.26,0,.38-.11,.38-.34v-1.41c0-.14-.03-.3-.09-.47-.09-.23-.27-.34-.56-.34h-5.05c-.66,0-1.21-.23-1.67-.68-.46-.46-.69-1.01-.69-1.67s.23-1.21,.69-1.67,1.01-.68,1.67-.68h2.35c.08,0,.15-.04,.19-.11s.05-.13,.02-.19l-6.93-12.15c-.29-.46-.29-.92,0-1.39,.28-.47,.7-.71,1.24-.71h4.83c.71,0,1.38,.21,2.01,.62s1.1,.95,1.41,1.6l4.96,10.78s.01,.04,.04,.04c.03,0,.04-.01,.04-.04l4.92-10.78c.29-.66,.75-1.19,1.39-1.6,.64-.41,1.33-.62,2.08-.62h4.66Z"/></g></g></svg>