<?xml version="1.0" encoding="UTF-8"?><svg id="_イヤー_2" xmlns="http://www.w3.org/2000/svg" width="600" height="96" xmlns:xlink="http://www.w3.org/1999/xlink" viewBox="0 0 600 96"><defs><style>.cls-1{fill:none;}.cls-2{fill:url(#linear-gradient);}.cls-3{fill:#005396;}.cls-4{fill:#0068b6;}.cls-5{fill:#ec9f24;}.cls-6{fill:#ea5c01;}.cls-7{fill:#fff;}.cls-8{fill:#eda100;}.cls-9{fill:#da0816;}.cls-10{fill:#dcdcdc;}.cls-11{fill:#221714;}.cls-12{fill:#073f89;}.cls-13{fill:url(#linear-gradient-3);}.cls-14{fill:url(#linear-gradient-2);}</style><linearGradient id="linear-gradient" x1="74.73" y1="-2.01" x2="98.44" y2="-2.01" gradientTransform="translate(0 50)" gradientUnits="userSpaceOnUse"><stop offset="0" stop-color="#04582f"/><stop offset="1" stop-color="#56a733"/></linearGradient><linearGradient id="linear-gradient-2" x1="21.56" y1="47.99" x2="45.26" y2="47.99" gradientTransform="matrix(1, 0, 0, 1, 0, 0)" gradientUnits="userSpaceOnUse"><stop offset="0" stop-color="#19264a"/><stop offset="1" stop-color="#085297"/></linearGradient><linearGradient id="linear-gradient-3" x1="48.15" y1="47.99" x2="71.84" y2="47.99" gradientTransform="matrix(1, 0, 0, 1, 0, 0)" gradientUnits="userSpaceOnUse"><stop offset="0" stop-color="#53090e"/><stop offset="1" stop-color="#e51729"/></linearGradient></defs><g id="_イヤー_1-2"><g><polyline class="cls-7" points="240 96 240 0 120 0 120 96"/><polyline class="cls-7" points="360 96 360 0 240 0 240 96"/><polyline class="cls-7" points="480 96 480 0 360 0 360 96"/><polyline class="cls-7" points="600 96 600 0 480 0 480 96"/><polyline class="cls-7" points="120 96 120 0 0 0 0 96"/><g><path class="cls-4" d="M571.04,61.57h-5.06v-1.13c-.5,.74-.98,1.13-1.79,1.13h-16.06v-2.07c0-.37-.31-.67-.7-.67h-.56v2.74h-4.01v-3.28c-.66,.53-1.51,.85-2.43,.85h-1.75v2.42h-5.64l-1.43-1.62-1.53,1.62h-9.49v-9.99h9.52l1.49,1.7,1.5-1.7h7.33c.92,0,1.77,.32,2.43,.85v-.85h6.26c.87,0,1.61,.17,2.21,.47v-.47h8v.8c.42-.52,.87-.8,1.54-.8h5.51v.65c.39-.43,.81-.65,1.42-.65h5.19V14.68h-66.48v29.9l3.05-6.49h4.26l1.47,3.12v-3.12h4.88l1.54,3.39,1.56-3.39h17.85c1.11,0,2.02,.28,2.69,.75v-.75h3.37v1.13c.5-.74,1.19-1.13,2-1.13h8.4l1.29,2.75v-2.75h4.38l1.84,2.58v-2.58h4.46v10h-4.85l-1.65-2.39v2.39h-6.07l-.7-1.5h-1.97l-.7,1.5h-4.43c-.79,0-1.5-.26-2-.91v.91h-7.06v-2.07c0-.37-.31-.67-.7-.67h-.56v2.74h-14.71v-.98l-.61,.98h-3.77l-.61-.98v.98h-5.99l-.47-1.15h-2.09l-.5,1.18h-3.64v33.2h66.48v-20.58c-.56,.48-1.29,.83-1.96,.83Z"/><g><path class="cls-4" d="M525.14,41.49v5.62h1.81v-7.82h-3.04l-2.21,4.8-2.21-4.8h-3.04v7.05l-3.51-7.05h-2.42l-3.67,7.82h2.17l.7-1.66h3.94l.77,1.66h3.83v-5.62l2.59,5.62h1.71l2.59-5.62Zm-14.82,2.5l1.26-2.98,1.38,2.98h-2.65Z"/><polygon class="cls-4" points="534.57 45.5 530.45 45.5 530.45 43.99 534.57 43.99 534.57 42.38 530.45 42.38 530.45 40.9 534.57 40.9 534.57 39.29 528.65 39.29 528.65 47.11 534.57 47.11 534.57 45.5"/><polygon class="cls-4" points="552.34 60.59 558.26 60.59 558.26 58.97 554.14 58.97 554.14 57.46 558.26 57.46 558.26 55.85 554.14 55.85 554.14 54.38 558.26 54.38 558.26 52.76 552.34 52.76 552.34 60.59"/><path class="cls-4" d="M543.37,41.66c0-1.31-1-2.38-2.78-2.38h-4.6v7.82h1.81v-2.82h2.16c.65,0,1.18,.53,1.18,1.18v1.63h1.97v-2.22c0-.51-.4-.95-.98-1.19,.74-.42,1.24-1.17,1.24-2.03Zm-2.94,1.02h-2.63v-1.78h2.63c.51,0,.92,.4,.92,.89s-.41,.89-.92,.89Z"/><path class="cls-4" d="M551.36,55.14c0-1.31-.99-2.38-2.78-2.38h-4.6v7.82h1.81v-2.82h2.16c.65,0,1.18,.53,1.18,1.18v1.64h1.97v-2.22c0-.51-.39-.96-.98-1.19,.74-.42,1.24-1.17,1.24-2.03Zm-2.94,1.02h-2.63v-1.78h2.63c.51,0,.92,.4,.92,.89s-.41,.89-.92,.89Z"/><rect class="cls-4" x="544.4" y="39.29" width="1.81" height="7.82"/><path class="cls-4" d="M550.53,47.11h2.2l.71-1.66h3.94l.77,1.66h3.81v-5.53l3.82,5.53h2.4v-7.82h-1.81v5.31l-3.78-5.31h-2.43v7.01l-3.49-7.01h-2.42l-2.88,6.14h-.69c-.95,0-1.67-.9-1.67-2.23s.72-2.23,1.67-2.23h1.94v-1.68h-2.08c-2.41,0-3.34,.9-3.34,3.91s.93,3.91,3.34,3.91Zm4.79-6.1l1.38,2.98h-2.65l1.26-2.98Z"/><path class="cls-4" d="M540.45,52.76h-6.55l-2.19,2.49-2.17-2.49h-7.46v7.82h7.34l2.3-2.61,2.3,2.61h3.52v-2.63h2.91c1.43,0,2.6-1.16,2.6-2.59s-1.16-2.59-2.6-2.59Zm-12.02,6.21h-4.54v-1.51h3.81v-1.61h-3.81v-1.48h4.66l1.96,2.23-2.08,2.37Zm4.47-2.34l2.83-3.21v6.46l-2.83-3.25Zm7.26-.29h-2.62v-1.96h2.62c.54,0,.97,.44,.97,.98s-.44,.98-.97,.98Z"/><path class="cls-4" d="M564.17,55.83h-1.89c-.48,0-.88-.32-.88-.73s.39-.73,.88-.73h3.35v-1.61h-4.31c-.89,0-1.93,.37-1.93,2.34,0,1.71,1.04,2.04,1.93,2.04h2.23c.48,0,.88,.41,.88,.92s-.39,.92-.88,.92h-4.16v1.61h4.53c.89,0,2.17-.4,2.17-2.54,0-1.86-1.04-2.21-1.93-2.21Z"/><path class="cls-4" d="M571.54,55.83h-1.89c-.48,0-.88-.32-.88-.73s.39-.73,.88-.73h3.35v-1.61h-4.31c-.89,0-1.93,.37-1.93,2.34,0,1.71,1.04,2.04,1.93,2.04h2.23c.48,0,.88,.41,.88,.92s-.39,.92-.88,.92h-4.16v1.61h4.53c.89,0,2.18-.4,2.18-2.54,0-1.86-1.04-2.21-1.93-2.21Z"/></g></g><g><polygon class="cls-3" points="178.41 31.77 169.35 31.77 163.72 64.57 172.78 64.57 178.41 31.77"/><polygon class="cls-3" points="156.11 31.77 147.3 53.93 142.25 35 133.47 33.83 141.77 64.57 143.07 64.57 150.14 64.57 151.44 64.57 165.44 31.77 156.11 31.77"/><path class="cls-3" d="M179.78,56.26l-1.37,6.64s6.66,1.75,9.95,1.75c4.41,0,12.69-1.08,14.96-7.55,2.26-6.47-1.85-9.64-5.76-11.8-3.91-2.16-6.93-3.3-5.83-5.59,1.1-2.29,8.85-2.56,12.42-.27l1.23-6.67s-4.39-1.99-10.77-1.28c-6.86,.76-11.48,4.05-12.14,7.89-.63,3.67-.14,6.67,4.32,9.3,4.46,2.63,8.03,3.64,7.82,6.27-.21,2.63-4.8,3.44-8.64,2.83-3.84-.61-6.17-1.52-6.17-1.52Z"/><path class="cls-3" d="M227.48,64.57h8.15l-7.09-32.8h-7.46s-1.83-.11-3.02,1.17c-1.19,1.28-2.47,4.44-2.47,4.44l-11.53,27.19h9.06l1.9-4.92h11.41l1.05,4.92Zm-9.92-11.46l4.82-12.46,2.66,12.46h-7.48Z"/><path class="cls-5" d="M124.37,31.84h13.38c1.06,0,3.64,.41,4.6,1.92s3.64,15.23,3.64,15.23c0,0-6.38-13.58-21.61-17.15Z"/></g><g><path class="cls-7" d="M103.25,67.86c0,7.43-6.03,13.46-13.45,13.46H16.75V28.14c0-7.43,6.04-13.45,13.45-13.45H103.25v53.18Z"/><path class="cls-2" d="M79.43,54.24h5.56c.17,0,.51-.03,.66-.06,1.07-.23,1.97-1.18,1.97-2.47s-.9-2.24-1.97-2.47c-.15-.03-.49-.07-.66-.07h-5.56v5.07Zm4.92-35.08c-5.31,0-9.62,4.31-9.62,9.62v9.98h13.62c.31,0,.7,.02,.94,.04,3.06,.16,5.34,1.74,5.34,4.48,0,2.16-1.55,4-4.36,4.41v.11c3.11,.22,5.5,1.93,5.5,4.64,0,2.92-2.62,4.8-6.11,4.8h-14.93v19.59h14.11c5.3,0,9.6-4.3,9.6-9.61V19.16h-14.09Zm2.61,24.82c0-1.28-.9-2.13-1.94-2.3-.1-.02-.36-.04-.55-.04h-5.04v4.68h5.04c.18,0,.45-.03,.55-.05,1.05-.17,1.94-1.02,1.94-2.29Z"/><path class="cls-14" d="M21.56,28.78v23.73c2.7,1.31,5.49,2.16,8.31,2.16,3.31,0,5.16-2.03,5.16-4.76v-11.15h8.25v11.15c0,4.36-2.68,7.86-11.85,7.86-5.52,0-9.87-1.19-9.87-1.19v20.25h14.1c5.3,0,9.6-4.3,9.6-9.61V19.16h-14.09c-5.31,0-9.62,4.31-9.62,9.62"/><path class="cls-13" d="M57.76,19.16c-5.3,0-9.61,4.31-9.61,9.62v12.58c2.44-2.09,6.65-3.39,13.48-3.09,3.68,.17,7.54,1.15,7.54,1.15v4.07c-1.93-.98-4.27-1.9-7.27-2.13-5.19-.39-8.32,2.14-8.32,6.64s3.12,7.02,8.32,6.63c2.99-.23,5.37-1.16,7.27-2.12v4.06s-3.87,.98-7.54,1.15c-6.83,.31-11.04-.99-13.48-3.08v22.19h14.1c5.31,0,9.59-4.3,9.59-9.61V19.16h-14.08Z"/></g><g><path class="cls-12" d="M432.84,55.32c11.22,0,20.32-9.1,20.32-20.32s-9.1-20.32-20.32-20.32h-25.69c-11.22,0-20.32,9.09-20.32,20.32s9.1,20.32,20.32,20.32h25.69Z"/><path class="cls-10" d="M407.15,54.87c10.98,0,19.87-8.89,19.87-19.86s-8.89-19.86-19.87-19.86-19.86,8.89-19.86,19.86,8.89,19.86,19.86,19.86"/><path class="cls-12" d="M403.15,23.54c-4.74,1.66-8.14,6.16-8.14,11.47s3.41,9.83,8.17,11.48l-.03-22.95Z"/><path class="cls-12" d="M419.3,35c0,5.32-3.41,9.83-8.16,11.48l.03-22.95c4.74,1.66,8.13,6.16,8.13,11.47"/><path class="cls-11" d="M395.36,63.35c.06-.18,.11-.38,.85-.38,2.3,0,2.73,1.6,2.73,2.91,0,.78-.43,4.79-4.51,4.79-.62,0-.93-.08-.93-.51,0-.21,.18-.78,.29-1.21l1.57-5.61Zm-2.37-.56c.66,.05,1,.12,1,.56,0,.26-.1,.66-.15,.81l-1.59,5.74c-.23,.8-.41,.84-1.05,.96v.21h3.28c3.82,0,5.9-2.4,5.9-5.03,0-1.36-.8-3.45-3.79-3.45h-3.61v.21Z"/><path class="cls-11" d="M403.06,69.71c-.5,.77-1.08,1.49-1.8,1.49-.61,0-.61-.57-.61-.81,0-.61,1.02-3.83,1.02-4.19,0-.27-.1-.34-.81-.34v-.2c.49-.03,1.57-.23,2.07-.32l.04,.02-1.14,4.18c-.05,.18-.21,.71-.21,.86,0,.09,.09,.19,.21,.19,.15,0,.53-.26,1.06-1.01l.17,.13Zm-.26-5.76c-.32,0-.62-.23-.62-.67s.29-.7,.61-.7c.42,0,.64,.43,.64,.71,0,.25-.21,.66-.64,.66"/><path class="cls-11" d="M409.12,69.71c-.64,.87-1.09,1.47-1.8,1.47-.59,0-.62-.39-.62-.77,0-.32,.96-3.48,.96-4,0-.23-.08-.41-.33-.41-.62,0-1.43,1.11-1.9,1.85-.59,.9-.77,1.46-1.3,3.22h-.97c.4-1.47,1.27-4.5,1.27-4.78,0-.2-.12-.34-.83-.34v-.21c.7-.13,1.4-.26,2.11-.4l.03,.02-.83,2.71,.03,.03c.61-.96,1.8-2.76,2.88-2.76,.6,0,.9,.32,.9,.85s-1.04,3.77-1.04,4.15c0,.2,.18,.23,.21,.23,.25,0,.58-.41,1.06-1.03l.18,.17Z"/><path class="cls-11" d="M410.78,67.79c.48-1.15,1.37-2.15,2.07-2.15,.32,0,.45,.25,.45,.51,0,.11-.06,1.67-2.74,2.22l.22-.57Zm2.68,1.86c-.65,.53-1.2,.97-1.9,.97-.53,0-1.21-.3-1.21-1.18,0-.26,.06-.52,.14-.79l.35-.06c2.1-.31,3.32-1.35,3.32-2.38,0-.56-.4-.88-1.07-.88-1.83,0-3.88,2.18-3.88,4.03,0,.82,.42,1.83,1.78,1.83s2.48-1.2,2.62-1.4l-.15-.16Z"/><path class="cls-11" d="M414.25,71.06l1.06-3.79c.12-.49,.2-.93,.2-1.04,0-.18-.07-.38-.47-.38-.14,0-.28,.04-.43,.06v-.22c.66-.08,1.42-.25,2.01-.34l.05,.02-.64,2.58,.03,.02,.1-.25c.43-.85,1.42-2.37,2.23-2.37,.3,0,.62,.19,.62,.63,0,.68-.47,.68-.61,.68-.56,0-.36-.47-.67-.47-.4,0-1.18,1.44-1.28,1.63-.5,.94-.68,1.52-1.21,3.25h-.99Z"/><path class="cls-11" d="M418.35,69.16c.09,.57,.3,1.77,1.35,1.77,.73,0,.94-.62,.94-1.05,0-.86-1.55-2.11-1.55-3.11,0-.4,.18-1.44,1.56-1.44,.58,0,.84,.21,1.23,.21,.22,0,.31-.12,.37-.22h.18l-.26,1.8h-.21c-.06-.74-.38-1.49-1.22-1.49-.29,0-.7,.12-.7,.75,0,.83,1.59,1.98,1.59,3.08,0,1.41-1.2,1.74-1.93,1.74-.39,0-.92-.25-1.29-.25-.18,0-.23,.13-.31,.27h-.21l.26-2.07h.21Z"/><path class="cls-11" d="M433.16,64.99c-.03-.36-.14-2.11-1.99-2.11-2.6,0-3.92,3.14-3.92,5.05,0,1.7,.71,2.77,2.25,2.77s2.37-.92,3-1.53l.22,.18c-.47,.58-1.64,1.93-3.53,1.93-1.5,0-3.4-.91-3.4-3.51s2.3-5.37,5.27-5.37c.94,0,1.73,.32,2.02,.32,.38,0,.46-.16,.52-.3h.28l-.48,2.59-.24-.04Z"/><path class="cls-11" d="M435.54,69.58c-.66,.99-1.17,1.62-1.98,1.62-.57,0-.61-.44-.61-.81,0-.27,1.88-7.04,1.88-7.32,0-.34-.54-.34-.88-.32v-.21c.67-.07,1.35-.2,2.02-.35l.07,.06-1.96,7.51c-.02,.12-.13,.47-.13,.61,0,.08,0,.26,.19,.26,.32,0,.6-.36,1.23-1.18l.17,.12Z"/><path class="cls-11" d="M441.54,69.65c-.82,1.18-1.16,1.53-1.8,1.53-.58,0-.62-.49-.62-.68,0-.24,.26-1.33,.56-2.38h-.04c-.88,1.47-1.84,3.08-3,3.08-.47,0-.72-.19-.72-.76s.98-3.84,.98-4.19c0-.38-.24-.38-.77-.38v-.19c.65-.07,1.3-.18,1.95-.34l.04,.02-1.19,4.72c-.04,.17,0,.44,.28,.44,.56,0,1.36-1.21,1.81-1.89,.63-.96,.92-1.78,1.42-3.17h.96l-1.03,3.88c-.08,.26-.24,.83-.24,1.02,0,.06,0,.21,.15,.21,.25,0,.61-.45,1.07-1.03l.19,.12Z"/><path class="cls-11" d="M446.25,67.07c0,1.08-1.23,3.83-3.01,3.83-.61,0-.61-.33-.61-.42,0-1.36,1.24-4.51,2.68-4.51,.81,0,.94,.7,.94,1.1m-3.61-4.36c.76,.02,.85,.08,.85,.39,0,.18-.12,.51-.21,.86l-1.77,6.51v.05c0,.3,1,.69,1.69,.69,1.98,0,4.15-2.24,4.15-4.3,0-.95-.64-1.57-1.55-1.57-1.17,0-1.99,1.21-2.41,1.88h-.03c.45-1.48,1.04-3.9,1.32-4.96l-.06-.06c-.68,.13-1.34,.22-1.99,.3v.22Z"/><path class="cls-11" d="M388.8,80.96c.64-.12,.84-.16,1.06-.96l1.59-5.73c.08-.26,.15-.58,.15-.81,0-.45-.35-.5-.91-.56v-.2h3.21v.2c-.64,.11-.84,.14-1.07,.96l-1.59,5.75c-.08,.26-.14,.52-.14,.83,0,.42,.32,.46,.88,.52v.2h-3.17v-.2Z"/><path class="cls-11" d="M398.21,79.82c-.65,.87-1.11,1.46-1.81,1.46-.59,0-.62-.39-.62-.77,0-.31,.96-3.48,.96-3.99,0-.24-.08-.42-.32-.42-.63,0-1.45,1.12-1.92,1.84-.59,.89-.77,1.45-1.29,3.22h-.97c.4-1.46,1.27-4.51,1.27-4.77,0-.2-.13-.34-.83-.34v-.21c.71-.13,1.41-.26,2.11-.4l.04,.03-.83,2.71,.03,.03c.6-.96,1.8-2.76,2.87-2.76,.6,0,.89,.32,.89,.86s-1.04,3.76-1.04,4.15c0,.19,.19,.22,.22,.22,.25,0,.57-.42,1.06-1.03l.19,.18Z"/><path class="cls-11" d="M401.67,76.02h-1.09l-1.14,4.33s-.01,.06-.01,.11c0,.11,.07,.21,.2,.21,.26,0,.72-.61,1.04-1.03l.17,.09c-.66,1-1.16,1.58-1.85,1.58-.25,0-.62-.13-.62-.52,0-.2,.24-.99,.3-1.2l.93-3.58h-.95c0-.07,0-.13,.03-.2,.07-.11,.45-.21,.66-.32,.43-.23,1.05-.81,1.42-1.26,.05-.06,.1-.18,.22-.16,.09-.02,.12,.1,.09,.19l-.36,1.34h1.03l-.07,.41Z"/><path class="cls-11" d="M402.82,77.9c.49-1.15,1.37-2.16,2.07-2.16,.32,0,.45,.25,.45,.52,0,.1-.06,1.66-2.74,2.2l.21-.57Zm2.68,1.86c-.65,.53-1.19,.97-1.89,.97-.55,0-1.22-.31-1.22-1.19,0-.26,.07-.52,.12-.79l.37-.05c2.11-.31,3.33-1.35,3.33-2.38,0-.57-.4-.88-1.07-.88-1.82,0-3.88,2.18-3.88,4.03,0,.82,.41,1.84,1.77,1.84s2.48-1.2,2.63-1.41l-.16-.15Z"/><path class="cls-11" d="M406.56,81.17l1.04-3.78c.14-.49,.21-.92,.21-1.05,0-.18-.06-.38-.47-.38-.14,0-.28,.04-.43,.06v-.22c.66-.08,1.43-.25,2.01-.35l.04,.03-.63,2.57,.02,.04,.11-.26c.43-.85,1.42-2.37,2.23-2.37,.3,0,.63,.19,.63,.64,0,.67-.47,.67-.62,.67-.55,0-.36-.46-.67-.46-.4,0-1.19,1.44-1.28,1.63-.49,.94-.67,1.52-1.21,3.25h-.98Z"/><path class="cls-11" d="M416.52,79.82c-.65,.87-1.1,1.46-1.81,1.46-.59,0-.62-.39-.62-.77,0-.31,.96-3.48,.96-3.99,0-.24-.08-.42-.32-.42-.62,0-1.44,1.12-1.91,1.84-.6,.89-.77,1.45-1.3,3.22h-.98c.41-1.46,1.28-4.51,1.28-4.77,0-.2-.13-.34-.83-.34v-.21c.7-.13,1.4-.26,2.1-.4l.04,.03-.83,2.71,.03,.03c.61-.96,1.8-2.76,2.87-2.76,.6,0,.9,.32,.9,.86s-1.03,3.76-1.03,4.15c0,.19,.18,.22,.21,.22,.26,0,.58-.42,1.06-1.03l.19,.18Z"/><path class="cls-11" d="M417.52,79.76c0-1.17,1.16-4.03,2.68-4.03,.38,0,.74,.25,.74,.87,0,1.27-1.27,4.08-2.65,4.08-.34,0-.77-.24-.77-.92m4.71-.02c-.58,.57-.84,.9-1.04,.9-.1,0-.18-.08-.18-.17,0-.4,1.2-4.83,1.23-4.98l-.09-.04-.79,.09-.03,.04-.14,.57h-.03c-.03-.36-.46-.7-1.02-.7-1.73,0-3.7,2.43-3.7,4.33,0,.38,.04,1.54,1.34,1.54,.78,0,1.46-.39,2.54-1.97l.03,.03c-.2,.79-.27,1.07-.27,1.37,0,.22,0,.56,.54,.56s1-.46,1.78-1.43l-.15-.13Z"/><path class="cls-11" d="M426.08,76.02h-1.08l-1.14,4.33s-.02,.06-.02,.11c0,.11,.06,.21,.2,.21,.26,0,.72-.61,1.04-1.03l.17,.09c-.66,1-1.17,1.58-1.85,1.58-.25,0-.62-.13-.62-.52,0-.2,.24-.99,.3-1.2l.94-3.58h-.96c-.02-.07-.02-.13,.03-.2,.07-.11,.44-.21,.66-.32,.43-.23,1.05-.81,1.42-1.26,.05-.06,.1-.18,.22-.16,.09-.02,.12,.1,.09,.19l-.36,1.34h1.04l-.07,.41Z"/><path class="cls-11" d="M428.57,79.84c-.51,.76-1.08,1.48-1.8,1.48-.61,0-.61-.57-.61-.81,0-.61,1.02-3.83,1.02-4.19,0-.28-.1-.34-.81-.34v-.21c.49-.03,1.56-.23,2.07-.32l.04,.03-1.15,4.17c-.05,.19-.21,.71-.21,.86,0,.08,.09,.19,.21,.19,.16,0,.53-.26,1.06-1.02l.17,.15Zm-.26-5.78c-.32,0-.62-.22-.62-.67s.3-.7,.61-.7c.43,0,.65,.42,.65,.71,0,.26-.2,.67-.64,.67"/><path class="cls-11" d="M432.81,75.72c.62,0,.91,.57,.91,1.25,0,1.39-1.02,4.07-2.5,4.07-.65,0-1.04-.46-1.04-1.2,0-1.53,1.19-4.12,2.63-4.12m.09-.27c-1.89,0-3.81,2.09-3.81,4,0,1.08,.58,1.87,1.95,1.87,1.99,0,3.77-2.35,3.77-3.95,0-.85-.41-1.92-1.91-1.92"/><path class="cls-11" d="M440.47,79.82c-.65,.87-1.1,1.46-1.81,1.46-.59,0-.62-.39-.62-.77,0-.31,.96-3.48,.96-3.99,0-.24-.08-.42-.32-.42-.63,0-1.45,1.12-1.92,1.84-.59,.89-.75,1.45-1.29,3.22h-.97c.4-1.46,1.28-4.51,1.28-4.77,0-.2-.13-.34-.83-.34v-.21c.7-.13,1.4-.26,2.1-.4l.04,.03-.83,2.71,.03,.03c.61-.96,1.8-2.76,2.87-2.76,.6,0,.9,.32,.9,.86s-1.04,3.76-1.04,4.15c0,.19,.19,.22,.21,.22,.25,0,.58-.42,1.06-1.03l.19,.18Z"/><path class="cls-11" d="M441.73,79.76c0-1.17,1.17-4.03,2.68-4.03,.37,0,.74,.25,.74,.87,0,1.27-1.27,4.08-2.65,4.08-.35,0-.77-.24-.77-.92m4.71-.02c-.58,.57-.84,.9-1.04,.9-.09,0-.18-.08-.18-.17,0-.4,1.2-4.83,1.24-4.98l-.09-.04-.8,.09-.03,.04-.13,.57h-.02c-.04-.36-.47-.7-1.03-.7-1.73,0-3.72,2.43-3.72,4.33,0,.38,.05,1.54,1.34,1.54,.78,0,1.47-.39,2.54-1.97l.03,.03c-.21,.79-.27,1.07-.27,1.37,0,.22,0,.56,.54,.56,.57,0,1-.46,1.78-1.43l-.16-.13Z"/><path class="cls-11" d="M449.39,79.68c-.67,1.01-1.17,1.63-1.98,1.63-.57,0-.62-.45-.62-.81,0-.28,1.88-7.05,1.88-7.32,0-.33-.54-.33-.88-.32v-.2c.67-.08,1.34-.2,2.02-.35l.07,.06-1.96,7.51c-.03,.12-.13,.47-.13,.61,0,.08,0,.25,.19,.25,.32,0,.59-.36,1.23-1.18l.17,.12Z"/><path class="cls-11" d="M451.21,72.6h.13c.13,0,.23,.06,.23,.25,0,.17-.06,.29-.23,.29h-.13v-.54Zm-.37,0c.16,.02,.16,0,.16,.15v.78q0,.14-.16,.16v.04h.52v-.04c-.16-.02-.15-.02-.15-.16v-.32h.15c.21,.31,.29,.51,.38,.51h.21v-.02c-.06-.05-.16-.15-.25-.28l-.18-.24c.15-.06,.26-.18,.26-.34,0-.19-.18-.29-.38-.29h-.57v.05Zm1.61,.56c0-.61-.48-1.11-1.09-1.11s-1.1,.51-1.1,1.11,.48,1.11,1.1,1.11,1.09-.5,1.09-1.11m-.18,0c0,.52-.4,.97-.91,.97s-.92-.45-.92-.97,.4-.97,.92-.97,.91,.46,.91,.97"/></g><polyline class="cls-1" points="259.38 81.32 259.38 14.68 340.62 14.68 340.62 81.32 259.38 81.32"/><g><path d="M279.49,72.79v-3.32c0-1.25-.8-2.09-2.08-2.1-.67-.01-1.37,.2-1.86,.94-.37-.59-.94-.94-1.75-.94-.56,0-1.12,.17-1.55,.79v-.65h-1.15v5.29h1.16v-2.93c0-.92,.51-1.41,1.29-1.41s1.15,.5,1.15,1.39v2.94h1.16v-2.93c0-.92,.53-1.41,1.29-1.41s1.16,.5,1.16,1.39v2.94h1.16Zm17.2-5.29h-1.88v-1.6h-1.16v1.6h-1.07v1.05h1.07v2.41c0,1.23,.48,1.96,1.84,1.96,.5,0,1.07-.15,1.44-.41l-.33-.98c-.34,.2-.72,.3-1.02,.3-.58,0-.76-.35-.76-.89v-2.39h1.88v-1.05Zm9.82-.13c-.66,0-1.1,.31-1.39,.77v-.64h-1.14v5.29h1.15v-2.97c0-.87,.38-1.36,1.13-1.36,.23,0,.48,.03,.72,.13l.35-1.08c-.25-.1-.59-.14-.82-.14h0Zm-14.84,.55c-.55-.37-1.32-.55-2.16-.55-1.34,0-2.2,.64-2.2,1.69,0,.86,.64,1.39,1.83,1.56l.54,.08c.63,.09,.93,.25,.93,.55,0,.41-.42,.64-1.21,.64s-1.37-.25-1.76-.55l-.54,.9c.63,.46,1.43,.69,2.29,.69,1.53,0,2.41-.72,2.41-1.73,0-.93-.7-1.42-1.85-1.58l-.54-.08c-.5-.07-.9-.17-.9-.52,0-.39,.38-.62,1.01-.62,.67,0,1.33,.25,1.65,.45l.5-.93Zm30.83-.55c-.66,0-1.1,.31-1.39,.77v-.64h-1.14v5.29h1.15v-2.97c0-.87,.38-1.36,1.13-1.36,.23,0,.48,.03,.72,.13l.35-1.08c-.25-.1-.59-.14-.82-.14h0Zm-14.83,2.78c0,1.6,1.12,2.78,2.82,2.78,.8,0,1.33-.18,1.9-.63l-.55-.93c-.43,.31-.89,.48-1.38,.48-.92-.01-1.59-.68-1.59-1.69s.67-1.68,1.59-1.69c.5,0,.95,.17,1.38,.48l.55-.93c-.58-.45-1.11-.63-1.9-.63-1.7,0-2.82,1.17-2.82,2.78h0Zm10.78,0v-2.64h-1.15v.64c-.37-.48-.92-.77-1.67-.77-1.48,0-2.64,1.16-2.64,2.78s1.16,2.78,2.64,2.78c.75,0,1.31-.3,1.67-.77v.64h1.15v-2.64Zm-4.28,0c0-.93,.61-1.69,1.6-1.69s1.59,.73,1.59,1.69-.64,1.69-1.59,1.69-1.6-.76-1.6-1.69h0Zm-13.89-2.78c-1.55,0-2.63,1.13-2.63,2.78s1.13,2.78,2.71,2.78c.8,0,1.53-.2,2.17-.74l-.56-.85c-.44,.35-1.01,.55-1.54,.55-.74,0-1.42-.34-1.58-1.29h3.93c.01-.14,.02-.29,.02-.44-.01-1.65-1.03-2.78-2.51-2.78h0Zm-.02,1.03c.74,0,1.22,.46,1.34,1.28h-2.74c.12-.76,.59-1.28,1.41-1.28h0Zm28.87,1.75v-4.77h-1.15v2.77c-.37-.48-.92-.77-1.67-.77-1.48,0-2.64,1.16-2.64,2.78s1.16,2.78,2.64,2.78c.75,0,1.31-.3,1.67-.77v.64h1.15v-2.64Zm-4.28,0c0-.93,.61-1.69,1.6-1.69s1.59,.73,1.59,1.69-.64,1.69-1.59,1.69-1.6-.76-1.6-1.69h0Zm-38.86,0v-2.64h-1.15v.64c-.37-.48-.92-.77-1.67-.77-1.48,0-2.64,1.16-2.64,2.78s1.16,2.78,2.64,2.78c.75,0,1.31-.3,1.67-.77v.64h1.15v-2.64Zm-4.28,0c0-.93,.61-1.69,1.6-1.69s1.59,.73,1.59,1.69-.64,1.69-1.59,1.69-1.6-.76-1.6-1.69Zm49.35,1.88c.07,0,.14,.01,.21,.04,.06,.03,.12,.06,.17,.11,.05,.05,.09,.1,.11,.17s.04,.13,.04,.2-.01,.14-.04,.2c-.03,.06-.07,.12-.11,.17-.05,.05-.11,.09-.17,.11-.06,.03-.13,.04-.21,.04s-.15-.01-.21-.04c-.07-.03-.12-.07-.17-.11-.05-.05-.09-.1-.11-.17-.03-.06-.04-.13-.04-.2s.01-.14,.04-.2c.03-.06,.07-.12,.11-.17,.05-.05,.1-.09,.17-.11,.07-.03,.14-.04,.21-.04Zm0,.94c.06,0,.11-.01,.16-.03,.05-.02,.09-.05,.13-.09,.04-.04,.07-.08,.09-.13,.02-.05,.03-.1,.03-.16s-.01-.11-.03-.16c-.02-.05-.05-.09-.09-.13-.04-.04-.08-.07-.13-.09s-.1-.03-.16-.03-.11,.01-.16,.03c-.05,.02-.09,.05-.13,.09-.04,.04-.07,.08-.09,.13-.02,.05-.03,.1-.03,.16s.01,.11,.03,.16c.02,.05,.05,.09,.09,.13,.04,.04,.08,.07,.13,.09,.05,.02,.1,.03,.16,.03Zm.03-.66c.06,0,.11,.01,.15,.04,.03,.03,.05,.07,.05,.11,0,.04-.01,.07-.04,.1-.03,.03-.07,.04-.12,.05l.16,.18h-.12l-.15-.18h-.05v.18h-.1v-.49h.23Zm-.12,.09v.13h.12s.05,0,.07-.02c.02-.01,.02-.03,.02-.05s0-.04-.02-.05c-.02-.01-.04-.02-.07-.02h-.12Z"/><g><rect class="cls-6" x="291.28" y="27.19" width="17.43" height="31.32"/><path class="cls-9" d="M292.39,42.85c0-6.35,2.98-12.01,7.61-15.66-3.39-2.67-7.66-4.26-12.31-4.26-11,0-19.92,8.92-19.92,19.92s8.92,19.92,19.92,19.92c4.65,0,8.92-1.59,12.31-4.26-4.63-3.65-7.61-9.31-7.61-15.66Z"/><path d="M330.33,55.19v-.64h.26v-.13h-.66v.13h.26v.64h.14Zm1.28,0v-.77h-.2l-.23,.53-.23-.53h-.2v.77h.14v-.58l.22,.5h.15l.22-.5v.58h.14Z"/><path class="cls-8" d="M332.23,42.85c0,11-8.92,19.92-19.92,19.92-4.65,0-8.92-1.59-12.31-4.26,4.63-3.65,7.61-9.31,7.61-15.66s-2.98-12.01-7.61-15.66c3.39-2.67,7.66-4.26,12.31-4.26,11,0,19.92,8.92,19.92,19.92Z"/></g></g></g></g></svg>