<svg xmlns="http://www.w3.org/2000/svg" width="314.08" height="100" viewBox="0 0 314.08 100"><defs><style>.cls-1{fill:#b062a3;}.cls-2{fill:#39c;}</style></defs><g id="レイヤー_2" data-name="レイヤー 2"><g id="レイヤー_1-2" data-name="レイヤー 1"><path class="cls-1" d="M0,94.48C9.67,88.42,15.11,81.05,17,75.6l10.2,4.84c.38.15.69.3.69.69s-.23.53-1.38,1C22.17,87.26,13,94.32,3.15,97.85ZM32,32.64c0-1.07-.07-2.84-.15-4l10.2.23c.31,0,.92,0,.92.61a3,3,0,0,1-.61,1.39v7.59H72.88v4.22H1.53V38.47H32ZM42.35,91.87c0,6.67-2.23,8.13-9.05,8.13H20.87l-1.38-5.14a35.08,35.08,0,0,0,8,.92c4.29,0,4.45-1.38,4.45-4.37V72.92H9.44V49.59H65V72.92H42.35ZM20,68.62H54.47V53.81H20ZM63.6,98.08c-2.76-4.68-10.82-14-16.34-18.1l4.07-3.15a84.41,84.41,0,0,1,21.55,14.5Z"/><path class="cls-1" d="M90.4,69.63c2.5-.49,11-2,11-13.94,0-11-8.74-12-10.92-12.28-.24,4.51-.72,13.61-3.3,20.25-1.49,3.79-3.38,6.53-7,6.53-5.19,0-9-5.6-9-11.76C71.11,49.73,78,41,89.68,41,98.21,41,106,45.34,106,56c0,13.21-11.6,15.27-14.9,15.87ZM75.06,59.15c0,6.13,2.53,8.58,4.79,8.58,1.33,0,2.3-2.09,2.5-2.53,3.22-7.17,3.58-17.65,3.74-21.67-7.45,1.77-11,8-11,15.62"/><path class="cls-2" d="M152,32.62c2.62,7.73,11.94,19,26.37,26.3L176,62.17c-15.39-5.94-24.37-13.61-31.13-21.89-7.18,9.18-18.37,17.33-31.28,21.95L111,59.13c14.7-7.6,23.61-18.44,26.85-26.51Zm-23.2,27.54a43.12,43.12,0,0,0-.14-4.35l9.67.07a.79.79,0,0,1,.55.76c0,.07-.28,1-.28,1.11v8.49c0,14.43-3.17,24.65-23.4,31.07L112.61,94c10.36-4.49,16.23-9.94,16.23-25.61ZM160.74,56a.85.85,0,0,1,.41.76,3.4,3.4,0,0,1-.21,1V97.1h-9.39V60.44c0-2.28-.14-3.8-.2-4.56Z"/><path class="cls-2" d="M204.1,47.94H181.17V44.15H204.1Zm-1.73-9.52H183.11v-3.8h19.26Zm0,19.53H183.11V54.09h19.26Zm0,9.6H183.11v-3.8h19.26Zm.55,6.08V94.27h-12V97h-7.8V73.63Zm-12,16.84h5v-13h-5Zm50.74-33.62v3.73H231.23v3.31h10.42v3.73H231.23v3.52h14.22v3.8H208.79V59.13c-2.14,1.79-3.25,2.55-4.56,3.52l-2.27-3c.75-.83,6.55-7.25,8.07-15.33l8.7,2.14c.14.07.49.21.49.56a1.5,1.5,0,0,1-.63,1.1c-.07,0-.2.21-1.38,1.93h5.25a26.73,26.73,0,0,0,2.14-5.93l8.77,2.21c.14.06.41.13.41.48s-.21.41-.9.83-2.55,2.07-3,2.41h14.15v3.8H231.23v3ZM244,97.1a70.18,70.18,0,0,1-19-4.42,60.22,60.22,0,0,1-19.4,4.56l-2.55-3.59a52.57,52.57,0,0,0,15.88-4.08c-5.25-3.38-6.56-5-7.6-6.28l5.46-1.86h-12v-3.8h37.29v3c-3.18,4.28-8.43,7.45-10.7,8.84a57.38,57.38,0,0,0,14.77,3.86Zm-31.14-61c0-.69-.07-1.38-.2-3.66l8.63.07c.2,0,.69.2.69.48a8.05,8.05,0,0,1-.42,1.38v3.32h6.56V36.14a25.82,25.82,0,0,0-.21-3.66l8.5.07c.2,0,.82.07.82.62a2,2,0,0,1-.41,1v3.6h8.56v3.86h-8.56V45h-8.7V41.59h-6.56V45h-8.7V41.59h-8.35V37.73h8.35ZM223,53.88h-5.94v3H223Zm-5.94,10H223V60.58h-5.94Zm0,7.25H223V67.62h-5.94Zm2.56,10.29A19.79,19.79,0,0,0,225,86a20.19,20.19,0,0,0,4.76-4.55Z"/><path class="cls-2" d="M296.47,45.87h15.75V73h-16c-.56,5-1.45,9.19-4.56,13a61.88,61.88,0,0,0,22.37,7.18l-1.86,3.66c-13-1.72-21.41-4.69-25.34-6.62-1.94,1.38-7.46,4.83-17.19,6.62l-2.56-3.59c2.07-.48,8.63-2,13.95-6.56a43.92,43.92,0,0,1-9.81-10.21l8.08-3a26.62,26.62,0,0,0,5.94,7.73c1.17-2.42,1.45-4.63,1.73-8.22H271.41V45.87h15.74V39.31h-17V36.9c-1.31,3-2.83,6.35-5.32,10.9V97.24h-8.76V60.92a45.25,45.25,0,0,1-4.84,5.25l-3.1-2.62c6.21-8.08,11.46-22.3,12.91-31.76l9.87,2.83a1.16,1.16,0,0,1,.14.9h42.87v3.79H296.47Zm-9.32,3.87h-6.49v7.73h6.49Zm-6.49,19.4h6.49v-7.8h-6.49Zm15.81-11.67h6.7V49.74h-6.7Zm0,11.67h6.7v-7.8h-6.7Z"/><path class="cls-2" d="M62,6.27a.78.78,0,0,1,.52.78.9.9,0,0,1-.85,1c-.76,0-4.87-2.24-7.73-5.45-.37-.43-.43-.47-.59-.47s-.19,0-.58.49a21.15,21.15,0,0,1-5.26,4.3A9.22,9.22,0,0,1,45.1,8a.91.91,0,0,1-.86-1,.84.84,0,0,1,.59-.78A18.66,18.66,0,0,0,49.4,3.48,18.77,18.77,0,0,0,52.09.84,1.39,1.39,0,0,1,53.3.23c.68,0,.87.2,1.71,1.11a20.08,20.08,0,0,0,5.23,4.11ZM50.59,10.2c0,3.19-.7,5.37-2.51,7a5.15,5.15,0,0,1-2.26,1.23.88.88,0,0,1-.45-1.64,8,8,0,0,0,2.09-1.46,6.64,6.64,0,0,0,1.4-4c0-.41,0-.84,0-1.27V7.69c0-.23,0-.82.84-.82s.84.47.84.82Zm7.3,7.55c0,.26,0,.82-.86.82s-.85-.43-.85-.82V7.67A.71.71,0,0,1,57,6.85c.65,0,.92.24.92.82Z"/><path class="cls-2" d="M66.09,5.18a.64.64,0,0,1-.74-.7c0-.68.49-.7.74-.7h5a.64.64,0,0,1,.74.7.63.63,0,0,1-.74.7ZM74.56,3H72.19a.63.63,0,0,1-.72-.63c0-.48.35-.62.72-.62h2.37v-.7c0-.41.2-.64.68-.64s.8.1.8.64v.7h3.39v-.7c0-.43.21-.66.7-.66s.82.1.82.66v.7h2c.27,0,.72.08.72.62s-.33.63-.72.63H81v.62c0,.23,0,.62-.7.62s-.82-.11-.82-.62V3H76v.62c0,.41-.19.62-.74.62a1.2,1.2,0,0,1-.45-.07,1.62,1.62,0,0,1-.23.77h2.65c.09-.17.52-.93.64-1.09a.59.59,0,0,1,.51-.23c.38,0,.83.2.83.55a1.83,1.83,0,0,1-.37.77H82.6a.5.5,0,0,1,.58.51c0,.41-.29.51-.58.51H78.9v.91h3.29c.26,0,.53.08.53.45s-.2.47-.53.47H78.9v.87h3.29c.24,0,.53.08.53.45s-.39.47-.55.47H78.9v1H83a.53.53,0,0,1,.62.53c0,.46-.33.54-.62.54H74.56c-1.4,0-1.83-.37-1.83-1.81V7.71c-.31.37-.82,1-1.17,1a.74.74,0,0,1-.66-.82.73.73,0,0,1-.47.1H66.62a.63.63,0,0,1-.74-.68c0-.7.51-.7.74-.7h3.81c.26,0,.8,0,.74.82.14-.16.84-.88,1-1a12.65,12.65,0,0,0,1.36-2.14c.2-.36.33-.59.7-.59a.74.74,0,0,1,.37.12Zm-7.94-.63a.63.63,0,0,1-.74-.68A.63.63,0,0,1,66.62,1h3.81a.63.63,0,0,1,.74.68c0,.67-.5.68-.74.68Zm0,8.36a.64.64,0,0,1-.74-.69.63.63,0,0,1,.74-.68h3.81a.63.63,0,0,1,.74.68c0,.69-.54.69-.76.69Zm4.52,5.66c0,1.36-.37,1.77-1.76,1.77H67.67c-1.34,0-1.75-.39-1.75-1.77V13.86c0-1.34.37-1.77,1.77-1.77h1.69c1.37,0,1.76.41,1.76,1.77ZM69.83,14c0-.32-.1-.63-.62-.63H67.92a.55.55,0,0,0-.62.63v2.16a.55.55,0,0,0,.62.62h1.29a.55.55,0,0,0,.62-.62Zm11-1.64c.37,0,1.28,0,1.28,1s-1.77,2.18-2.9,2.85A29.83,29.83,0,0,0,83,17c.56.1.66.37.66.69a.7.7,0,0,1-.82.75A19.39,19.39,0,0,1,77.5,17,21,21,0,0,1,72,18.43a.67.67,0,0,1-.68-.73.59.59,0,0,1,.59-.63,22.17,22.17,0,0,0,4-.84,10.41,10.41,0,0,1-2.18-1.59.76.76,0,0,1-.27-.51c0-.23.16-.43.49-.56H72.42c-.37,0-.72-.14-.72-.61s.6-.58.72-.58ZM77.46,6.87V6h-2.8c-.35,0-.47.19-.47.48v.43Zm0,.92H74.19v.87h3.27Zm0,1.79H74.19v.5c0,.28.1.49.47.49h2.8Zm-3.11,4a1.94,1.94,0,0,1,.33.21,10.45,10.45,0,0,0,2.84,1.81c1.25-.56,2.69-1.44,2.69-1.85,0-.17-.24-.17-.31-.17Z"/><path class="cls-2" d="M96.72,12.44v5.1c0,.29,0,.8-.74.8s-.84-.22-.84-.8v-5.1H90.2a11.87,11.87,0,0,1-1.34,4.71c-.63,1.19-.9,1.26-1.21,1.26a.94.94,0,0,1-1-.89.9.9,0,0,1,.18-.53,10.56,10.56,0,0,0,1.75-6.42V3.35c0-1.64.62-2.14,2.14-2.14h10.69c1.48,0,2.14.46,2.14,2.14v12.9c0,2.09-1,2.09-3.09,2.09-1,0-1.54,0-1.54-.88,0-.49.21-.8.74-.8.25,0,1.34.06,1.55,0,.39-.06.69-.23.69-.89V12.44ZM95.14,6V2.71h-4c-.58,0-.85.29-.85.87V6Zm0,1.43H90.3V11h4.84ZM96.72,6h5.22V3.58a.77.77,0,0,0-.88-.87H96.72Zm5.22,1.43H96.72V11h5.22Z"/><path class="cls-2" d="M115.52,16.06c0,1.56-.58,2.08-2.06,2.08h-3.39c-1.44,0-2.08-.48-2.08-2.08V11.8c0-1.6.62-2.09,2.08-2.09h3.39c1.46,0,2.06.51,2.06,2.09ZM114,12c0-.56-.25-.88-.85-.88h-2.71a.77.77,0,0,0-.88.88v3.82a.77.77,0,0,0,.88.87h2.71c.58,0,.85-.29.85-.87Zm9.07-6.13c0,1.56-.58,2.06-2.08,2.06h-8.89c-1.48,0-2.09-.5-2.09-2.06V3.17c0-1.57.59-2.08,2.09-2.08H121c1.48,0,2.08.49,2.08,2.08Zm-1.59-2.51a.77.77,0,0,0-.88-.88h-8.12c-.58,0-.85.29-.85.88V5.68c0,.59.27.86.85.86h8.12c.59,0,.88-.27.88-.86ZM125,16.06c0,1.56-.6,2.08-2.08,2.08h-3.58c-1.42,0-2.07-.48-2.07-2.08V11.8c0-1.6.63-2.09,2.07-2.09h3.58c1.46,0,2.08.49,2.08,2.09Zm-1.54-4c0-.56-.25-.88-.85-.88h-2.94c-.61,0-.86.32-.86.88v3.82a.76.76,0,0,0,.86.87h2.94c.58,0,.85-.29.85-.87Z"/><path class="cls-2" d="M136.29,7.55a11.59,11.59,0,0,1,2.22-.21,14.33,14.33,0,0,1,3.6.48,4.63,4.63,0,0,1,3.33,4.74c0,5.15-5.82,5.15-7.22,5.15-.88,0-1.62,0-1.62-.89a.73.73,0,0,1,.86-.74l1.07,0c1.23,0,5.08-.1,5.08-3.52,0-3.26-2.7-3.72-4.84-3.72a10.41,10.41,0,0,0-2.48.23v3.1c0,2,0,5.5-3.31,5.5a4,4,0,0,1-3.91-4.08c0-3.47,3.41-4.95,5.53-5.65V5.28l-2.88,0c-.35,0-1.81,0-2,0a.73.73,0,0,1-.46-.76c0-.82.66-.82.91-.82l1.6,0c.39,0,1.71,0,2.86,0V1.62c0-.28,0-.9.84-.9s.85.55.85.9v2l2.83-.12a.75.75,0,0,1,.87.8.71.71,0,0,1-.66.8c-.1,0-2.74.12-3,.12Zm-1.67,2c-1.3.47-3.89,1.54-3.89,3.95A2.43,2.43,0,0,0,133,16.06c1.25,0,1.64-1.32,1.64-3.91ZM141,1.64c1.25,0,5,3.19,5,4.41a1,1,0,0,1-1,.88c-.39,0-.42-.08-1-.93a8.67,8.67,0,0,0-3.19-2.85c-.25-.15-.56-.48-.56-.7a.83.83,0,0,1,.19-.52.85.85,0,0,1,.62-.29"/><path class="cls-2" d="M152.48,8.39a25.55,25.55,0,0,1-1.21,8.37c-.35.95-.58,1.34-1.05,1.34a.89.89,0,0,1-.89-.83,1.66,1.66,0,0,1,.17-.7,21,21,0,0,0,1.36-8.2V3c0-1.36.39-1.83,1.83-1.83h12.05c1.42,0,1.83.41,1.83,1.83V4.44c0,1.4-.39,1.81-1.83,1.81H152.48Zm0-3.47h11.83a.57.57,0,0,0,.65-.64V3.17c0-.41-.22-.62-.65-.62H153.1a.54.54,0,0,0-.62.62Zm7.08,2.15a.7.7,0,0,1,.76-.78.69.69,0,0,1,.74.78v1.3h3.88c1.22,0,1.81.39,1.81,1.79v6.21c0,1.4-.59,1.79-1.81,1.79h-9.19c-1.21,0-1.79-.37-1.79-1.79V10.16c0-1.38.54-1.79,1.79-1.79h3.81Zm-4,5.43h4V9.73h-3.42c-.39,0-.62.2-.62.65Zm0,1.26v2.38c0,.41.17.62.62.62h3.42v-3Zm9.67-1.26V10.38c0-.41-.18-.65-.62-.65h-3.51V12.5Zm0,1.26h-4.13v3h3.51a.55.55,0,0,0,.62-.62Z"/><path class="cls-2" d="M173.78,1.89c0,.23-.37,2.33-.43,2.76a50.45,50.45,0,0,0-.37,5.57,38.92,38.92,0,0,0,.39,5.49,9.94,9.94,0,0,1,.16,1,.76.76,0,0,1-.88.78c-.5,0-.74-.21-.87-.78a34.81,34.81,0,0,1-.51-6.58A44.21,44.21,0,0,1,172,1.89a.83.83,0,0,1,1.05-.76c.39.06.72.23.72.76m10.73,8.19c0,2.79,0,5.69-3.7,7.21a12.6,12.6,0,0,1-3.6.7.82.82,0,0,1-.88-.86c0-.58.35-.72,1.11-.8,4-.39,5-1.91,5.24-4.61,0-1,0-1.32,0-4.54-2.46,0-3,0-5.45,0a7,7,0,0,1-1.64-.06c-.14,0-.47-.19-.47-.78,0-.79.57-.79,1.05-.79,1.56,0,4.4,0,6.47,0,0-.57-.1-3.06-.1-3.56s0-1.08.88-1.08.91.36.91,1.11c0,1.6,0,1.7.08,3.49l2.68-.12a.75.75,0,0,1,.86.84c0,.76-.41.8-1.34.84l-2.16.07c0,2.4,0,2.67,0,2.94"/><path class="cls-2" d="M203.81,1.81a.76.76,0,0,1,.86-.86c.64,0,.88.32.88.86V4.87h2.68a.78.78,0,0,1,.9.81.77.77,0,0,1-.9.84h-2.68V9.19c0,3.31-.92,5.92-4.21,7.49a12.48,12.48,0,0,1-4.59,1.21.92.92,0,0,1-1-.95c0-.65.29-.69,1.67-.88,4-.53,5.35-2.45,5.8-3.5a9.37,9.37,0,0,0,.58-3.49V6.52h-7.1v4.65a.75.75,0,0,1-.86.86c-.62,0-.87-.27-.87-.86V6.52h-2.65a.78.78,0,0,1-.9-.82c0-.76.57-.83.9-.83H195v-3a.76.76,0,0,1,.85-.86.77.77,0,0,1,.88.86v3h7.1Z"/><path class="cls-2" d="M213.6,10.34c-.29,0-1,0-1-.88s.6-.91,1-.91H229c.29,0,1,0,1,.89s-.62.9-1,.9Z"/><path class="cls-2" d="M236,13.88c0,.76,0,1.42,1.11,1.58.78.09,3.14.09,4.11.09,2.53,0,3.78,0,4.4-.07s1.54-.12,2.14-.12a.71.71,0,0,1,.78.82c0,.79-.53.87-2.08,1-1.17.08-4.17.08-6,.08a22.54,22.54,0,0,1-4.3-.18,2.5,2.5,0,0,1-2-2.88V2.06c0-.39.1-.85.9-.85s.91.27.91.85V7.63a42.78,42.78,0,0,0,8.76-2.94,7.54,7.54,0,0,1,1.74-.7,1,1,0,0,1,.87,1c0,.33-.19.55-.74.82A50.9,50.9,0,0,1,236,9.34ZM245.52,1a.89.89,0,0,1-.06-.31c0-.43.47-.51.63-.51.31,0,.44.2.74.84a7.3,7.3,0,0,1,.58,1.66c0,.52-.56.54-.62.54a.54.54,0,0,1-.53-.37c-.06-.13-.29-.82-.35-.95s-.33-.76-.39-.9m2.4-.21a.72.72,0,0,1-.06-.27c0-.35.39-.53.62-.53s.45.21.74.8a7.55,7.55,0,0,1,.62,1.63.6.6,0,0,1-.62.57.67.67,0,0,1-.51-.27c-.05-.12-.19-.47-.4-1-.06-.13-.34-.76-.39-.89"/><path class="cls-2" d="M253.76,3.52a.78.78,0,0,1-.88-.83.77.77,0,0,1,.88-.84h10c.8,0,1.83.16,1.83,1.48,0,1-1.22,4-3.37,6.89a60.5,60.5,0,0,1,5.2,4.52c1.21,1.18,1.33,1.44,1.33,1.79a1,1,0,0,1-1,1c-.42,0-.58-.18-1.48-1.21a41.54,41.54,0,0,0-5-4.79c-3.37,3.88-7.32,6-8.1,6a1,1,0,0,1-.87-1c0-.41.12-.47,1.19-1,6.89-3.38,10.14-10.63,10.14-11.62,0-.39-.33-.41-.7-.41Z"/></g></g></svg>