<?xml version="1.0" encoding="UTF-8"?><svg id="_イヤー_2" xmlns="http://www.w3.org/2000/svg" width="21" height="16.86" viewBox="0 0 21 16.86"><defs><style>.cls-1{fill:#ed7fa5;}</style></defs><g id="_イヤー_1-2"><path class="cls-1" d="M10.51,9.33l-7.17,7.17c-.5,.5-1.3,.5-1.79,0l-1.19-1.19c-.5-.5-.5-1.3,0-1.79l5.08-5.08L.37,3.36C-.12,2.86-.12,2.06,.37,1.57L1.56,.37C2.05-.12,2.85-.12,3.34,.37l7.17,7.17c.5,.5,.5,1.3,0,1.79Zm10.12-1.79L13.46,.37c-.5-.5-1.3-.5-1.79,0l-1.19,1.19c-.5,.5-.5,1.3,0,1.79l5.08,5.08-5.08,5.08c-.5,.5-.5,1.3,0,1.79l1.19,1.19c.5,.5,1.3,.5,1.79,0l7.17-7.17c.5-.48,.5-1.29,0-1.78h0Z"/></g></svg>