<?xml version="1.0" encoding="UTF-8"?><svg id="_イヤー_2" xmlns="http://www.w3.org/2000/svg" width="26.44" height="30.22" viewBox="0 0 26.44 30.22"><defs><style>.cls-1{fill:#fff;}</style></defs><g id="_イヤー_1-2"><path class="cls-1" d="M19.09,3.02c-1.22,1.14-2.33,2.33-3.31,3.53-1.61-2.21-3.61-4.46-5.87-6.56C4.12,5.38,0,12.39,0,16.62c0,7.51,5.91,13.6,13.22,13.6s13.22-6.08,13.22-13.6c0-3.14-3.07-9.63-7.35-13.59Zm-1.14,20.1c-1.28,.89-2.85,1.42-4.56,1.42-4.26,0-7.73-2.82-7.73-7.39,0-2.28,1.43-4.29,4.29-7.72,.41,.47,5.84,7.4,5.84,7.4l3.46-3.95c.24,.4,.46,.8,.66,1.17,1.62,3.08,.94,7.02-1.97,9.06Z"/></g></svg>