<?xml version="1.0" encoding="UTF-8"?><svg id="_イヤー_2" xmlns="http://www.w3.org/2000/svg" width="56" height="43.96" viewBox="0 0 56 43.96"><defs><style>.cls-1{fill:#fff;}</style></defs><g id="_イヤー_1-2"><path class="cls-1" d="M55.86,6.26c-.25-1.27-.82-2.44-1.6-3.4-.17-.21-.34-.4-.53-.58-1.4-1.4-3.35-2.28-5.49-2.28H7.77C5.63,0,3.68,.87,2.28,2.28c-.19,.19-.36,.38-.53,.58C.96,3.82,.4,4.99,.15,6.26c-.1,.49-.15,1-.15,1.51v28.42c0,1.09,.23,2.14,.64,3.08,.38,.9,.95,1.72,1.63,2.41,.17,.17,.35,.33,.54,.49,1.34,1.11,3.08,1.79,4.96,1.79H48.23c1.88,0,3.62-.67,4.96-1.79,.19-.15,.36-.31,.53-.48,.69-.69,1.25-1.5,1.64-2.41h0c.41-.95,.64-1.99,.64-3.08V7.77c0-.51-.05-1.02-.14-1.51ZM5.09,5.09c.69-.69,1.63-1.11,2.68-1.11H48.23c1.06,0,2,.42,2.68,1.11,.12,.12,.24,.26,.34,.4L30.04,23.97c-.58,.51-1.31,.77-2.04,.77s-1.45-.25-2.04-.77L4.75,5.48c.09-.14,.21-.27,.33-.39Zm-1.11,31.1V9.59l15.35,13.39L3.98,36.35c0-.05,0-.11,0-.17Zm44.26,3.79H7.77c-.69,0-1.33-.18-1.88-.5l16.19-14.1,1.51,1.31c1.26,1.1,2.85,1.66,4.41,1.66s3.16-.56,4.42-1.66l1.51-1.31,16.18,14.1c-.55,.32-1.19,.5-1.88,.5Zm3.79-3.79c0,.06,0,.11,0,.17l-15.34-13.37,15.35-13.39v26.59Z"/></g></svg>