<?xml version="1.0" encoding="UTF-8"?><svg id="_イヤー_2" xmlns="http://www.w3.org/2000/svg" width="19.38" height="15.69" viewBox="0 0 19.38 15.69"><defs><style>.cls-1{fill:#ed7fa5;}.cls-2{fill:#fff;}.cls-3{fill:none;stroke:#ed7fa5;stroke-linecap:round;stroke-miterlimit:10;stroke-width:1.22px;}</style></defs><g id="_イヤー_1-2"><g><g><path class="cls-2" d="M9.69,15.07c-4.75,0-8.61-2.62-8.61-5.85V.72c0-.06,.05-.11,.11-.11H18.2c.06,0,.11,.05,.11,.11V9.23c0,3.22-3.86,5.85-8.61,5.85Z"/><path class="cls-1" d="M17.69,1.22V9.23c0,2.84-3.66,5.23-8,5.23S1.69,12.06,1.69,9.23V1.22H17.69m.51-1.22H1.18C.78,0,.46,.32,.46,.72V9.23c0,3.57,4.13,6.46,9.23,6.46s9.23-2.89,9.23-6.46V.72c0-.4-.32-.72-.72-.72h0Z"/></g><g><path class="cls-3" d="M1.96,9c2.68,0,4.84,2.17,4.84,4.84"/><path class="cls-3" d="M17.42,9c-2.68,0-4.84,2.17-4.84,4.84"/></g><g><g><path class="cls-2" d="M.61,.7c0-.06,.02-.09,.03-.1h1.66c1.7,.01,3.08,1.65,3.08,3.67,0,1.55-.83,2.94-2.07,3.46-1.03,.43-1.91,.95-2.67,1.57l-.03-8.6Z"/><path class="cls-1" d="M2.31,1.22c1.34,0,2.47,1.4,2.47,3.05,0,1.31-.68,2.47-1.7,2.89-.68,.28-1.29,.6-1.85,.96V1.22h1.08m0-1.22H.6C.27,0,0,.31,0,.7V9.45c0,.38,.27,.7,.6,.7,.88-.82,1.89-1.41,2.95-1.85,1.42-.59,2.45-2.18,2.45-4.02h0C6,1.92,4.34,0,2.31,0h0Z"/></g><g><path class="cls-2" d="M18.76,9.32c-.76-.63-1.65-1.16-2.7-1.59-1.24-.52-2.07-1.91-2.07-3.46,0-2.02,1.38-3.66,3.08-3.66h1.69s0,.04,0,.08V9.32Z"/><path class="cls-1" d="M18.15,1.22v6.9c-.56-.36-1.18-.68-1.85-.96-1.01-.42-1.7-1.59-1.7-2.89,0-1.65,1.13-3.05,2.47-3.05h1.08m.62-1.22h-1.71c-2.03,0-3.69,1.92-3.69,4.27h0c0,1.85,1.02,3.43,2.45,4.02,1.06,.44,2.07,1.03,2.95,1.85,.33,0,.6-.31,.6-.7V.7c0-.38-.27-.7-.6-.7h0Z"/></g></g><g><g><path class="cls-2" d="M4.75,4.92l.02-1.56,2.97,.02c.36,0,.65,.29,.65,.65v.24c0,.36-.29,.65-.65,.65h-2.99Z"/><path class="cls-1" d="M7.73,3.99s.04,.02,.04,.04v.24s-.02,.04-.04,.04h-2.36v-.32h2.36m0-1.22h-2.99c-.33,0-.59,.27-.59,.59v1.58c0,.33,.27,.59,.59,.59h2.99c.69,0,1.26-.57,1.26-1.26v-.24c0-.69-.57-1.26-1.26-1.26h0Z"/></g><g><path class="cls-2" d="M11.64,4.92c-.36,0-.65-.29-.65-.65v-.24c0-.36,.29-.65,.65-.65h2.99l-.02,1.54h-2.97Z"/><path class="cls-1" d="M14,3.99v.32h-2.36s-.04-.02-.04-.04v-.24s.02-.04,.04-.04h2.36m.63-1.22h-2.99c-.69,0-1.26,.57-1.26,1.26v.24c0,.69,.57,1.26,1.26,1.26h2.99c.33,0,.59-.27,.59-.59v-1.58c0-.33-.27-.59-.59-.59h0Z"/></g></g></g></g></svg>