<?xml version="1.0" encoding="UTF-8"?><svg id="_イヤー_2" xmlns="http://www.w3.org/2000/svg" width="26" height="21.48" viewBox="0 0 26 21.48"><defs><style>.cls-1{fill:#ed7fa5;}.cls-2{fill:#fff;}.cls-3{stroke-linecap:round;}.cls-3,.cls-4{fill:none;stroke:#ed7fa5;stroke-miterlimit:10;}</style></defs><g id="_イヤー_1-2"><g><g><g><path class="cls-2" d="M18.09,20.98c-3.88,0-7.04-2.14-7.04-4.78v-6.95s.04-.09,.09-.09h13.9s.09,.04,.09,.09v6.95c0,2.63-3.16,4.78-7.04,4.78Z"/><path class="cls-1" d="M24.62,9.67v6.54c0,2.32-2.99,4.28-6.54,4.28s-6.54-1.96-6.54-4.28v-6.54h13.07m.41-1H11.14c-.32,0-.59,.26-.59,.59v6.95c0,2.91,3.37,5.28,7.54,5.28s7.54-2.36,7.54-5.28v-6.95c0-.32-.26-.59-.59-.59h0Z"/></g><g><path class="cls-3" d="M11.78,16.01c2.19,0,3.96,1.77,3.96,3.96"/><path class="cls-3" d="M24.4,16.01c-2.19,0-3.96,1.77-3.96,3.96"/></g><g><g><path class="cls-2" d="M10.67,9.24l1.38-.07c1.39,0,2.51,1.34,2.51,2.99,0,1.27-.68,2.4-1.69,2.82-.84,.35-1.56,.77-2.18,1.28l-.02-7.03Z"/><path class="cls-1" d="M12.06,9.67c1.09,0,2.01,1.14,2.01,2.49,0,1.07-.56,2.02-1.38,2.36-.55,.23-1.05,.49-1.51,.78v-5.64h.88m0-1h-1.39c-.27,0-.49,.26-.49,.57v7.15c0,.31,.22,.57,.49,.57,.72-.67,1.54-1.15,2.41-1.51,1.16-.49,2-1.78,2-3.29,0-1.92-1.36-3.49-3.01-3.49h0Z"/></g><g><path class="cls-2" d="M25.5,16.28c-.62-.52-1.35-.94-2.21-1.3-1.01-.42-1.69-1.56-1.69-2.82,0-1.65,1.13-2.99,2.51-2.99h1.39v7.12Z"/><path class="cls-1" d="M25,9.67v5.64c-.46-.29-.96-.55-1.51-.78-.83-.35-1.38-1.3-1.38-2.36,0-1.35,.92-2.49,2.01-2.49h.88m.51-1h-1.39c-1.66,0-3.01,1.57-3.01,3.49,0,1.51,.84,2.8,2,3.29,.87,.36,1.69,.84,2.41,1.51,.27,0,.49-.26,.49-.57v-7.15c0-.31-.22-.57-.49-.57h0Z"/></g></g><g><g><path class="cls-2" d="M14.05,12.69v-1.28h2.44c.29,.01,.53,.25,.53,.55v.2c0,.29-.24,.53-.53,.53h-2.44Z"/><path class="cls-1" d="M16.49,11.93l.03,.03-.03,.23h-1.92v-.26h1.92m0-1h-2.44c-.27,0-.49,.22-.49,.49v1.29c0,.27,.22,.49,.49,.49h2.44c.57,0,1.03-.46,1.03-1.03v-.2c0-.57-.46-1.03-1.03-1.03h0Z"/></g><g><path class="cls-2" d="M19.68,12.69c-.29,0-.53-.24-.53-.53v-.2c0-.29,.24-.53,.53-.53h2.44v1.26h-2.44Z"/><path class="cls-1" d="M21.61,11.93v.25l-1.96-.03,.03-.23h1.92m.51-1h-2.44c-.57,0-1.03,.46-1.03,1.03v.2c0,.57,.46,1.03,1.03,1.03h2.44c.27,0,.49-.22,.49-.49v-1.29c0-.27-.22-.49-.49-.49h0Z"/></g></g></g><g><g><path class="cls-2" d="M7.54,12.31C3.66,12.31,.5,10.17,.5,7.54V.59s.04-.09,.09-.09H14.49s.09,.04,.09,.09V7.54c0,2.63-3.16,4.78-7.04,4.78Z"/><path class="cls-1" d="M14.07,1V7.54c0,2.32-2.99,4.28-6.54,4.28S1,9.85,1,7.54V1H14.07m.41-1H.59C.26,0,0,.26,0,.59V7.54c0,2.91,3.37,5.28,7.54,5.28s7.54-2.36,7.54-5.28V.59c0-.32-.26-.59-.59-.59h0Z"/></g><g><path class="cls-3" d="M1.22,7.35c2.19,0,3.96,1.77,3.96,3.96"/><path class="cls-3" d="M13.85,7.35c-2.19,0-3.96,1.77-3.96,3.96"/></g><line class="cls-4" x1=".67" y1="3.93" x2="14.67" y2="3.93"/><line class="cls-4" x1="2.67" y1="3.43" x2="2.67" y2=".43"/><line class="cls-4" x1="4.67" y1="3.43" x2="4.67" y2=".43"/><line class="cls-4" x1="6.67" y1="3.43" x2="6.67" y2=".43"/><line class="cls-4" x1="8.67" y1="3.43" x2="8.67" y2=".43"/><line class="cls-4" x1="10.67" y1="3.43" x2="10.67" y2=".43"/><line class="cls-4" x1="12.67" y1="3.43" x2="12.67" y2=".43"/></g></g></g></svg>