<?xml version="1.0" encoding="UTF-8"?><svg id="_イヤー_2" xmlns="http://www.w3.org/2000/svg" width="59.8" height="49.4" viewBox="0 0 59.8 49.4"><defs><style>.cls-1{fill:none;stroke:#333;stroke-linecap:round;stroke-miterlimit:10;stroke-width:2.3px;}.cls-2{fill:#fff;}.cls-3{fill:#333;}</style></defs><g id="_イヤー_1-2"><g><g><g><path class="cls-2" d="M41.6,48.25c-8.92,0-16.18-4.93-16.18-10.98v-15.98c0-.11,.09-.2,.2-.2h31.96c.11,0,.2,.09,.2,.2v15.98c0,6.06-7.26,10.98-16.18,10.98Z"/><path class="cls-3" d="M56.63,22.23v15.03c0,5.33-6.88,9.83-15.03,9.83s-15.03-4.5-15.03-9.83v-15.03h30.07m.95-2.3H25.62c-.75,0-1.35,.6-1.35,1.35v15.98c0,6.7,7.76,12.13,17.33,12.13s17.33-5.43,17.33-12.13v-15.98c0-.75-.6-1.35-1.35-1.35h0Z"/></g><g><path class="cls-1" d="M27.08,36.83c5.03,0,9.1,4.07,9.1,9.1"/><path class="cls-1" d="M56.12,36.83c-5.03,0-9.1,4.07-9.1,9.1"/></g><g><g><path class="cls-2" d="M24.55,21.24c0-.11,.05-.17,.06-.18l3.12,.02c3.19,0,5.78,3.09,5.78,6.88,0,2.91-1.56,5.52-3.89,6.5-1.97,.82-3.64,1.81-5.08,2.99V21.24Z"/><path class="cls-3" d="M27.73,22.23c2.51,0,4.63,2.62,4.63,5.73,0,2.46-1.28,4.64-3.18,5.43-1.27,.53-2.43,1.13-3.48,1.8v-12.96h2.03m0-2.3h-3.2c-.62,0-1.13,.59-1.13,1.31v16.45c0,.72,.51,1.31,1.13,1.31,1.65-1.55,3.55-2.65,5.54-3.48,2.67-1.12,4.6-4.09,4.6-7.56,0-4.42-3.12-8.03-6.93-8.03h0Z"/></g><g><path class="cls-2" d="M58.65,37.45c-1.44-1.19-3.11-2.17-5.07-2.99-2.33-.97-3.89-3.58-3.89-6.5,0-3.79,2.59-6.88,5.78-6.88h3.18s0,.07,0,.16v16.21Z"/><path class="cls-3" d="M57.5,22.23v12.96c-1.05-.67-2.21-1.27-3.48-1.8-1.91-.79-3.18-2.98-3.18-5.43,0-3.1,2.12-5.73,4.63-5.73h2.03m1.17-2.3h-3.2c-3.81,0-6.93,3.61-6.93,8.03,0,3.47,1.93,6.44,4.6,7.56,1.99,.83,3.89,1.94,5.54,3.48,.62,0,1.13-.59,1.13-1.31V21.24c0-.72-.51-1.31-1.13-1.31h0Z"/></g></g><g><g><path class="cls-2" d="M32.32,29.18l.03-2.93,5.58,.03c.67,0,1.22,.55,1.22,1.22v.45c0,.67-.55,1.22-1.22,1.22h-5.61Z"/><path class="cls-3" d="M37.93,27.43s.07,.04,.07,.07v.45s-.04,.07-.07,.07h-4.43v-.6h4.43m0-2.3h-5.61c-.61,0-1.12,.5-1.12,1.12v2.97c0,.61,.5,1.12,1.12,1.12h5.61c1.31,0,2.37-1.07,2.37-2.37v-.45c0-1.31-1.07-2.37-2.37-2.37h0Z"/></g><g><path class="cls-2" d="M45.27,29.18c-.67,0-1.22-.55-1.22-1.22v-.45c0-.67,.55-1.22,1.22-1.22h5.61l-.03,2.9h-5.58Z"/><path class="cls-3" d="M49.7,27.43v.6h-4.43s-.07-.04-.07-.07v-.45s.04-.07,.07-.07h4.43m1.18-2.3h-5.61c-1.31,0-2.37,1.07-2.37,2.37v.45c0,1.31,1.07,2.37,2.37,2.37h5.61c.61,0,1.12-.5,1.12-1.12v-2.97c0-.61-.5-1.12-1.12-1.12h0Z"/></g></g></g><g><g><path class="cls-2" d="M17.33,28.32C8.41,28.32,1.15,23.39,1.15,17.33V1.35c0-.11,.09-.2,.2-.2h31.96c.11,0,.2,.09,.2,.2v15.98c0,6.06-7.26,10.98-16.18,10.98Z"/><path class="cls-3" d="M32.37,2.3v15.03c0,5.33-6.88,9.83-15.03,9.83S2.3,22.66,2.3,17.33V2.3h30.07m.95-2.3H1.35C.6,0,0,.6,0,1.35v15.98c0,6.7,7.76,12.13,17.33,12.13s17.33-5.43,17.33-12.13V1.35c0-.75-.6-1.35-1.35-1.35h0Z"/></g><g><path class="cls-1" d="M2.82,16.9c5.03,0,9.1,4.07,9.1,9.1"/><path class="cls-1" d="M31.85,16.9c-5.03,0-9.1,4.07-9.1,9.1"/></g></g></g></g></svg>