<?xml version="1.0" encoding="UTF-8"?><svg id="_イヤー_2" xmlns="http://www.w3.org/2000/svg" width="43.14" height="36.67" viewBox="0 0 43.14 36.67"><defs><style>.cls-1{fill:#fff;}.cls-2{fill:#333;}.cls-3,.cls-4{fill:none;stroke:#333;stroke-miterlimit:10;stroke-width:2.86px;}.cls-4{stroke-linecap:round;}</style></defs><g id="_イヤー_1-2"><g><g><path class="cls-1" d="M21.57,35.24c-11.1,0-20.14-6.13-20.14-13.67V1.68c0-.14,.11-.25,.25-.25H41.46c.14,0,.25,.11,.25,.25V21.57c0,7.54-9.03,13.67-20.14,13.67Z"/><path class="cls-2" d="M40.28,2.86V21.57c0,6.63-8.57,12.24-18.71,12.24S2.86,28.2,2.86,21.57V2.86H40.28m1.18-2.86H1.68C.75,0,0,.75,0,1.68V21.57c0,8.34,9.66,15.1,21.57,15.1s21.57-6.76,21.57-15.1V1.68c0-.93-.75-1.68-1.68-1.68h0Z"/></g><g><path class="cls-4" d="M3.5,21.03c6.25,0,11.32,5.07,11.32,11.32"/><path class="cls-4" d="M39.63,21.03c-6.25,0-11.32,5.07-11.32,11.32"/></g><line class="cls-3" x1=".15" y1="10.35" x2="42.7" y2="10.35"/><g><line class="cls-3" x1="7.77" y1="10.35" x2="7.77" y2=".57"/><line class="cls-3" x1="14.67" y1="10.35" x2="14.67" y2=".57"/><line class="cls-3" x1="21.57" y1="10.35" x2="21.57" y2=".57"/><line class="cls-3" x1="28.47" y1="10.35" x2="28.47" y2=".57"/><line class="cls-3" x1="35.37" y1="10.35" x2="35.37" y2=".57"/></g></g></g></svg>