<?xml version="1.0" encoding="UTF-8"?><svg id="_イヤー_2" xmlns="http://www.w3.org/2000/svg" width="18.76" height="15.94" viewBox="0 0 18.76 15.94"><defs><style>.cls-1{fill:#ed7fa5;}.cls-2{fill:#fff;}.cls-3,.cls-4{fill:none;stroke:#ed7fa5;stroke-miterlimit:10;stroke-width:1.24px;}.cls-4{stroke-linecap:round;}</style></defs><g id="_イヤー_1-2"><g><g><path class="cls-2" d="M9.38,15.32C4.55,15.32,.62,12.65,.62,9.38V.73c0-.06,.05-.11,.11-.11H18.02c.06,0,.11,.05,.11,.11V9.38c0,3.28-3.93,5.94-8.76,5.94Z"/><path class="cls-1" d="M17.51,1.24V9.38c0,2.88-3.72,5.32-8.13,5.32S1.24,12.26,1.24,9.38V1.24H17.51m.51-1.24H.73C.33,0,0,.33,0,.73V9.38c0,3.63,4.2,6.56,9.38,6.56s9.38-2.94,9.38-6.56V.73c0-.4-.33-.73-.73-.73h0Z"/></g><g><path class="cls-4" d="M1.52,9.14c2.72,0,4.92,2.2,4.92,4.92"/><path class="cls-4" d="M17.23,9.14c-2.72,0-4.92,2.2-4.92,4.92"/></g><line class="cls-3" x1=".07" y1="4.5" x2="18.57" y2="4.5"/><g><line class="cls-3" x1="3.38" y1="4.5" x2="3.38" y2=".25"/><line class="cls-3" x1="6.38" y1="4.5" x2="6.38" y2=".25"/><line class="cls-3" x1="9.38" y1="4.5" x2="9.38" y2=".25"/><line class="cls-3" x1="12.38" y1="4.5" x2="12.38" y2=".25"/><line class="cls-3" x1="15.38" y1="4.5" x2="15.38" y2=".25"/></g></g></g></svg>