<?xml version="1.0" encoding="UTF-8"?><svg id="_イヤー_2" xmlns="http://www.w3.org/2000/svg" width="44.57" height="36.08" viewBox="0 0 44.57 36.08"><defs><style>.cls-1{fill:#fff;}.cls-2{fill:#333;}.cls-3{fill:none;stroke:#333;stroke-linecap:round;stroke-miterlimit:10;stroke-width:2.82px;}</style></defs><g id="_イヤー_1-2"><g><g><path class="cls-1" d="M22.28,34.67c-10.93,0-19.81-6.03-19.81-13.45V1.65c0-.14,.11-.25,.25-.25H41.85c.14,0,.25,.11,.25,.25V21.22c0,7.42-8.89,13.45-19.81,13.45Z"/><path class="cls-2" d="M40.69,2.82V21.22c0,6.53-8.43,12.04-18.41,12.04S3.88,27.75,3.88,21.22V2.82H40.69m1.16-2.82H2.72c-.91,0-1.65,.74-1.65,1.65V21.22c0,8.2,9.5,14.86,21.22,14.86s21.22-6.65,21.22-14.86V1.65c0-.91-.74-1.65-1.65-1.65h0Z"/></g><g><path class="cls-3" d="M4.51,20.69c6.15,0,11.14,4.99,11.14,11.14"/><path class="cls-3" d="M40.06,20.69c-6.15,0-11.14,4.99-11.14,11.14"/></g><g><g><path class="cls-1" d="M1.41,1.6c0-.1,.03-.16,.05-.19h3.85c3.9,0,7.08,3.78,7.08,8.42,0,3.57-1.91,6.76-4.76,7.95-2.41,1-4.45,2.21-6.21,3.66V1.6Z"/><path class="cls-2" d="M5.31,2.82c3.08,0,5.67,3.21,5.67,7.01,0,3.01-1.57,5.68-3.9,6.65-1.56,.65-2.97,1.38-4.26,2.2V2.82h2.49m0-2.82H1.38C.62,0,0,.72,0,1.6V21.74c0,.88,.62,1.6,1.38,1.6,2.01-1.89,4.34-3.24,6.78-4.26,3.27-1.37,5.63-5.01,5.63-9.25C13.79,4.42,9.97,0,5.31,0h0Z"/></g><g><path class="cls-1" d="M43.16,21.45c-1.76-1.45-3.8-2.66-6.21-3.66-2.85-1.19-4.76-4.39-4.76-7.95,0-4.64,3.18-8.42,7.08-8.42h3.85s.05,.1,.05,.19V21.45Z"/><path class="cls-2" d="M41.75,2.82v15.87c-1.29-.82-2.71-1.55-4.26-2.2-2.33-.97-3.9-3.65-3.9-6.65,0-3.8,2.6-7.01,5.67-7.01h2.49m1.43-2.82h-3.92c-4.67,0-8.49,4.42-8.49,9.83,0,4.25,2.36,7.89,5.63,9.25,2.44,1.02,4.77,2.37,6.78,4.26,.76,0,1.38-.72,1.38-1.6V1.6c0-.88-.62-1.6-1.38-1.6h0Z"/></g></g><g><g><path class="cls-1" d="M10.92,11.32l.04-3.59,6.83,.04c.83,0,1.5,.67,1.5,1.5v.55c0,.83-.67,1.5-1.5,1.5h-6.87Z"/><path class="cls-2" d="M17.79,9.18s.09,.05,.09,.09v.55s-.05,.09-.09,.09h-5.42v-.73h5.42m0-2.82h-6.87c-.75,0-1.37,.61-1.37,1.37v3.63c0,.75,.61,1.37,1.37,1.37h6.87c1.6,0,2.91-1.31,2.91-2.91v-.55c0-1.6-1.31-2.91-2.91-2.91h0Z"/></g><g><path class="cls-1" d="M26.78,11.32c-.83,0-1.5-.67-1.5-1.5v-.55c0-.83,.67-1.5,1.5-1.5h6.87l-.04,3.55h-6.83Z"/><path class="cls-2" d="M32.2,9.18v.73h-5.42s-.09-.05-.09-.09v-.55s.05-.09,.09-.09h5.42m1.45-2.82h-6.87c-1.6,0-2.91,1.31-2.91,2.91v.55c0,1.6,1.31,2.91,2.91,2.91h6.87c.75,0,1.37-.61,1.37-1.37v-3.63c0-.75-.61-1.37-1.37-1.37h0Z"/></g></g></g></g></svg>