<?xml version="1.0" encoding="UTF-8"?><svg id="_イヤー_2" xmlns="http://www.w3.org/2000/svg" width="29.5" height="43.37" viewBox="0 0 29.5 43.37"><defs><style>.cls-1{fill:#fff;}.cls-2{fill:#333;}</style></defs><g id="_イヤー_1-2"><g><g><path class="cls-1" d="M5.72,42.22c-1.25,0-2.37-1.55-2.49-3.45l-.19-3.66c-.05-.91,.28-1.78,.88-2.33,1-.9,1.53-2.39,1.42-3.98l-1.01-15.6c-.1-1.58-.82-2.98-1.92-3.76-.66-.46-1.08-1.31-1.14-2.25l-.12-1.9c-.08-1.35,.32-2.63,1.07-3.44,.3-.31,.78-.69,1.42-.69H25.84c.63,0,1.12,.38,1.41,.69,.76,.8,1.16,2.09,1.07,3.44l-.12,1.9c-.06,.95-.48,1.79-1.14,2.25-1.1,.78-1.81,2.18-1.92,3.76l-1.01,15.6c-.1,1.59,.43,3.07,1.42,3.98,.6,.55,.93,1.42,.88,2.33l-.19,3.68c-.12,1.89-1.23,3.44-2.49,3.44H5.72Z"/><path class="cls-2" d="M25.84,2.31c.23,0,.46,.2,.57,.33,.42,.45,.84,1.36,.76,2.58l-.12,1.9c-.04,.71-.37,1.18-.65,1.38-1.38,.98-2.28,2.7-2.4,4.62l-1.01,15.6c-.12,1.93,.55,3.77,1.8,4.91,.27,.24,.54,.74,.51,1.42l-.19,3.65c-.09,1.44-.85,2.37-1.34,2.37H5.72c-.49,0-1.25-.92-1.34-2.34l-.19-3.68c-.03-.67,.24-1.17,.51-1.42,1.25-1.14,1.92-2.97,1.8-4.91l-1.01-15.6c-.12-1.92-1.02-3.65-2.4-4.62-.29-.2-.61-.67-.65-1.38l-.12-1.9c-.08-1.22,.34-2.13,.76-2.58,.11-.12,.34-.33,.57-.33H25.84m0-2.31H3.65C1.52,0-.16,2.47,.01,5.35l.12,1.9c.08,1.36,.73,2.49,1.62,3.12,.78,.55,1.35,1.62,1.43,2.89l1.01,15.6c.08,1.28-.34,2.41-1.05,3.05-.81,.74-1.33,1.93-1.26,3.24l.19,3.68c.16,2.56,1.74,4.53,3.64,4.53H23.78c1.9,0,3.48-1.97,3.64-4.53l.19-3.68c.07-1.32-.45-2.51-1.26-3.24-.71-.64-1.13-1.77-1.05-3.05l1.01-15.6c.08-1.27,.65-2.33,1.43-2.89,.9-.63,1.54-1.76,1.62-3.12l.12-1.9c.18-2.88-1.5-5.35-3.64-5.35h0Z"/></g><g><path class="cls-1" d="M14.75,35.44c-1.84,0-3.34-1.5-3.34-3.34V11.27c0-1.84,1.5-3.34,3.34-3.34s3.34,1.5,3.34,3.34v20.82c0,1.84-1.5,3.34-3.34,3.34Z"/><path class="cls-2" d="M14.75,9.09c1.21,0,2.19,.98,2.19,2.19v20.82c0,1.21-.98,2.19-2.19,2.19s-2.19-.98-2.19-2.19V11.27c0-1.21,.98-2.19,2.19-2.19m0-2.31c-2.47,0-4.5,2.02-4.5,4.5v20.82c0,2.47,2.02,4.5,4.5,4.5s4.5-2.02,4.5-4.5V11.27c0-2.47-2.02-4.5-4.5-4.5h0Z"/></g></g></g></svg>