<?xml version="1.0" encoding="UTF-8"?><svg id="_イヤー_2" xmlns="http://www.w3.org/2000/svg" width="22.64" height="28" viewBox="0 0 22.64 28"><defs><style>.cls-1{fill:#ed7fa5;}.cls-2{fill:#fff;}</style></defs><g id="_イヤー_1-2"><g><g><path class="cls-2" d="M3.03,22.39c-.67,0-1.26-.82-1.32-1.83l-.1-1.94c-.02-.48,.15-.94,.47-1.23,.53-.48,.81-1.27,.76-2.11l-.54-8.27c-.05-.84-.43-1.58-1.02-1.99-.35-.25-.57-.69-.6-1.19l-.06-1.01c-.04-.72,.17-1.4,.57-1.82,.16-.17,.41-.37,.75-.37H13.71c.34,0,.59,.2,.75,.37,.4,.43,.61,1.11,.57,1.82l-.06,1.01c-.03,.5-.26,.95-.6,1.19-.58,.41-.96,1.16-1.02,1.99l-.53,8.27c-.05,.84,.23,1.63,.76,2.11,.32,.29,.49,.75,.47,1.23l-.1,1.95c-.06,1-.65,1.82-1.32,1.82H3.03Z"/><path class="cls-1" d="M13.71,1.22c.12,0,.24,.11,.3,.17,.22,.24,.44,.72,.4,1.37l-.06,1.01c-.02,.37-.19,.62-.35,.73-.73,.52-1.21,1.43-1.27,2.45l-.53,8.27c-.07,1.02,.29,2,.95,2.6,.14,.13,.29,.39,.27,.75l-.1,1.94c-.05,.77-.45,1.25-.71,1.25H3.03c-.26,0-.66-.49-.71-1.24l-.1-1.95c-.02-.36,.13-.62,.27-.75,.66-.6,1.02-1.58,.95-2.6l-.54-8.27c-.07-1.02-.54-1.93-1.27-2.45-.15-.11-.32-.36-.35-.73l-.06-1.01c-.04-.65,.18-1.13,.4-1.37,.06-.06,.18-.17,.3-.17H13.71m0-1.22H1.94C.8,0-.09,1.31,0,2.84l.06,1.01c.04,.72,.39,1.32,.86,1.66,.41,.29,.71,.86,.76,1.53l.54,8.27c.04,.68-.18,1.28-.56,1.62-.43,.39-.7,1.02-.67,1.72l.1,1.95c.08,1.36,.92,2.4,1.93,2.4H12.61c1.01,0,1.85-1.05,1.93-2.4l.1-1.95c.04-.7-.24-1.33-.67-1.72-.37-.34-.6-.94-.56-1.62l.53-8.27c.04-.67,.34-1.24,.76-1.53,.47-.34,.82-.93,.86-1.66l.06-1.01c.09-1.53-.8-2.84-1.93-2.84h0Z"/></g><g><path class="cls-2" d="M7.82,18.79c-.98,0-1.77-.8-1.77-1.77V5.98c0-.98,.8-1.77,1.77-1.77s1.77,.8,1.77,1.77v11.04c0,.98-.8,1.77-1.77,1.77Z"/><path class="cls-1" d="M7.82,4.82c.64,0,1.16,.52,1.16,1.16v11.04c0,.64-.52,1.16-1.16,1.16s-1.16-.52-1.16-1.16V5.98c0-.64,.52-1.16,1.16-1.16m0-1.22c-1.31,0-2.39,1.07-2.39,2.39v11.04c0,1.31,1.07,2.39,2.39,2.39s2.39-1.07,2.39-2.39V5.98c0-1.31-1.07-2.39-2.39-2.39h0Z"/></g></g><g><g><path class="cls-2" d="M14.03,27.39c-.67,0-1.26-.82-1.32-1.83l-.1-1.94c-.03-.5-.47-7.51-.73-11.7l-.26-4.12c-.04-.72,.17-1.4,.57-1.82,.16-.17,.41-.37,.75-.37h7.77c.34,0,.59,.2,.75,.37,.4,.43,.61,1.11,.57,1.82l-.24,3.76c-.27,4.31-.73,11.53-.76,12.05l-.1,1.95c-.06,1-.65,1.82-1.32,1.82h-5.58Z"/><path class="cls-1" d="M20.71,6.22c.12,0,.24,.11,.3,.17,.22,.24,.44,.72,.4,1.37l-.06,1.01-.18,2.77c-.27,4.31-.73,11.52-.76,12.04l-.1,1.94c-.05,.77-.45,1.25-.71,1.25h-5.58c-.26,0-.66-.49-.71-1.24l-.1-1.95c-.03-.51-.47-7.51-.73-11.69-.11-1.68-.18-2.91-.2-3.12l-.06-1.01c-.04-.65,.18-1.13,.4-1.37,.06-.06,.18-.17,.3-.17h7.77m0-1.22h-7.77c-1.13,0-2.03,1.31-1.93,2.84l.06,1.01c.04,.72,.89,14.1,.93,14.8l.1,1.95c.08,1.36,.92,2.4,1.93,2.4h5.58c1.01,0,1.85-1.05,1.93-2.4l.1-1.95c.04-.7,.89-14.08,.93-14.8l.06-1.01c.09-1.53-.8-2.84-1.93-2.84h0Z"/></g><g><path class="cls-2" d="M16.82,23.79c-.98,0-1.77-.8-1.77-1.77V10.98c0-.98,.8-1.77,1.77-1.77s1.77,.8,1.77,1.77v11.04c0,.98-.8,1.77-1.77,1.77Z"/><path class="cls-1" d="M16.82,9.82c.64,0,1.16,.52,1.16,1.16v11.04c0,.64-.52,1.16-1.16,1.16s-1.16-.52-1.16-1.16V10.98c0-.64,.52-1.16,1.16-1.16m0-1.22c-1.31,0-2.39,1.07-2.39,2.39v11.04c0,1.31,1.07,2.39,2.39,2.39s2.39-1.07,2.39-2.39V10.98c0-1.31-1.07-2.39-2.39-2.39h0Z"/></g></g></g></svg>