<?xml version="1.0" encoding="UTF-8"?><svg id="_イヤー_2" xmlns="http://www.w3.org/2000/svg" width="19.84" height="19.42" viewBox="0 0 19.84 19.42"><defs><style>.cls-1{fill:#fff;}</style></defs><g id="_イヤー_1-2"><g><path class="cls-1" d="M7.49,2c3.03,0,5.49,2.46,5.49,5.49s-2.46,5.49-5.49,5.49S2,10.52,2,7.49,4.46,2,7.49,2m0-2C3.35,0,0,3.35,0,7.49s3.35,7.49,7.49,7.49,7.49-3.35,7.49-7.49S11.63,0,7.49,0h0Z"/><path class="cls-1" d="M19.35,18.93h0c-.65,.65-1.7,.65-2.35,0l-5.83-5.83c-.06-.06-.06-.16,0-.22l2.14-2.14c.06-.06,.16-.06,.22,0l5.83,5.83c.65,.65,.65,1.7,0,2.35Z"/></g></g></svg>