<?xml version="1.0" encoding="UTF-8"?><svg id="_イヤー_2" xmlns="http://www.w3.org/2000/svg" width="47.67" height="46.67" viewBox="0 0 47.67 46.67"><defs><style>.cls-1{fill:#333;}</style></defs><g id="_イヤー_1-2"><g><path class="cls-1" d="M18,4c7.72,0,14,6.28,14,14s-6.28,14-14,14-14-6.28-14-14S10.28,4,18,4m0-4C8.06,0,0,8.06,0,18s8.06,18,18,18,18-8.06,18-18S27.94,0,18,0h0Z"/><path class="cls-1" d="M32.22,25.72c-.09,0-.19,.04-.26,.11l-5.14,5.14c-.14,.14-.14,.38,0,.52l14.02,14.02c.78,.78,1.8,1.17,2.83,1.17s2.05-.39,2.83-1.17c1.56-1.56,1.56-4.09,0-5.66l-14.02-14.02c-.07-.07-.17-.11-.26-.11h0Z"/></g></g></svg>