<?xml version="1.0" encoding="UTF-8"?><svg id="_イヤー_2" xmlns="http://www.w3.org/2000/svg" width="50" height="50" viewBox="0 0 50 50"><defs><style>.cls-1{fill:#ed7fa5;}</style></defs><g id="_イヤー_1-2"><path class="cls-1" d="M25,0C11.19,0,0,11.19,0,25s11.19,25,25,25,25-11.19,25-25S38.81,0,25,0Zm7.15,27.06l-6.18,6.18c-1.13,1.13-2.99,1.13-4.12,0-1.13-1.13-1.13-2.99,0-4.12l4.12-4.12-4.12-4.12c-1.13-1.13-1.13-2.99,0-4.12,1.13-1.13,2.99-1.13,4.12,0l6.18,6.18c.57,.57,.85,1.31,.85,2.06s-.28,1.49-.85,2.06Z"/></g></svg>