<svg id="_イヤー_2" xmlns="http://www.w3.org/2000/svg" width="21.95" height="43.37"><defs><style>.cls-1{fill:#fff}.cls-2{fill:#333}</style></defs><g id="_イヤー_1-2"><path class="cls-1" d="M5.72 42.22c-1.25 0-2.37-1.55-2.49-3.45l-.19-3.66c-.05-.96-.89-14.31-1.4-22.29l-.47-7.53c-.08-1.35.32-2.63 1.07-3.44.3-.31.78-.69 1.42-.69h14.65c.63 0 1.12.38 1.41.69.76.8 1.16 2.09 1.08 3.44l-.46 7.38c-.51 8.03-1.36 21.48-1.41 22.44l-.19 3.67c-.12 1.89-1.23 3.44-2.49 3.44H5.72z"/><path class="cls-2" d="M18.3 2.31c.23 0 .46.2.57.33.42.45.84 1.36.76 2.58l-.12 1.9c-.02.39-.17 2.75-.38 5.95-.53 8.37-1.33 21.02-1.38 21.97l-.19 3.65c-.09 1.44-.85 2.37-1.34 2.37H5.72c-.49 0-1.25-.92-1.34-2.34l-.19-3.68c-.05-.95-.85-13.57-1.38-21.93-.2-3.22-.35-5.61-.38-6l-.12-1.9c-.08-1.22.34-2.13.76-2.58.11-.12.34-.33.57-.33h14.65m0-2.31H3.65C1.52 0-.16 2.47.01 5.35l.12 1.9c.08 1.36 1.69 26.59 1.75 27.9l.19 3.68c.16 2.56 1.74 4.53 3.64 4.53h10.52c1.9 0 3.48-1.97 3.64-4.53l.19-3.68c.07-1.32 1.67-26.54 1.75-27.9l.12-1.9C22.11 2.47 20.43 0 18.29 0z"/><path class="cls-1" d="M10.98 35.44c-1.84 0-3.34-1.5-3.34-3.34V11.27c0-1.84 1.5-3.34 3.34-3.34s3.34 1.5 3.34 3.34v20.82c0 1.84-1.5 3.34-3.34 3.34z"/><path class="cls-2" d="M10.98 9.09c1.21 0 2.19.98 2.19 2.19V32.1a2.19 2.19 0 11-4.38 0V11.27c0-1.21.98-2.19 2.19-2.19m0-2.31c-2.47 0-4.5 2.02-4.5 4.5v20.82c0 2.47 2.02 4.5 4.5 4.5s4.5-2.02 4.5-4.5V11.27c0-2.47-2.02-4.5-4.5-4.5z"/></g></svg>