<svg id="_イヤー_2" xmlns="http://www.w3.org/2000/svg" width="15.64" height="23"><defs><style>.cls-1{fill:#ed7fa5}.cls-2{fill:#fff}</style></defs><g id="_イヤー_1-2"><path class="cls-2" d="M3.03 22.39c-.67 0-1.26-.82-1.32-1.83l-.1-1.94c-.02-.48.15-.94.47-1.23.53-.48.81-1.27.76-2.11L2.3 7.01c-.05-.84-.43-1.58-1.02-1.99-.35-.25-.57-.69-.6-1.19L.62 2.82C.58 2.1.79 1.42 1.19 1c.16-.17.41-.37.75-.37h11.77c.34 0 .59.2.75.37.4.43.61 1.11.57 1.82l-.06 1.01c-.03.5-.26.95-.6 1.19-.58.41-.96 1.16-1.02 1.99l-.53 8.27c-.05.84.23 1.63.76 2.11.32.29.49.75.47 1.23l-.1 1.95c-.06 1-.65 1.82-1.32 1.82h-9.6z"/><path class="cls-1" d="M13.71 1.22c.12 0 .24.11.3.17.22.24.44.72.4 1.37l-.06 1.01c-.02.37-.19.62-.35.73-.73.52-1.21 1.43-1.27 2.45l-.53 8.27c-.07 1.02.29 2 .95 2.6.14.13.29.39.27.75l-.1 1.94c-.05.77-.45 1.25-.71 1.25H3.03c-.26 0-.66-.49-.71-1.24l-.1-1.95c-.02-.36.13-.62.27-.75.66-.6 1.02-1.58.95-2.6L2.9 6.95c-.07-1.02-.54-1.93-1.27-2.45-.15-.11-.32-.36-.35-.73l-.06-1.01c-.04-.65.18-1.13.4-1.37.06-.06.18-.17.3-.17h11.79m0-1.22H1.94C.8 0-.09 1.31 0 2.84l.06 1.01c.04.72.39 1.32.86 1.66.41.29.71.86.76 1.53l.54 8.27c.04.68-.18 1.28-.56 1.62-.43.39-.7 1.02-.67 1.72l.1 1.95c.08 1.36.92 2.4 1.93 2.4h9.59c1.01 0 1.85-1.05 1.93-2.4l.1-1.95c.04-.7-.24-1.33-.67-1.72-.37-.34-.6-.94-.56-1.62l.53-8.27c.04-.67.34-1.24.76-1.53.47-.34.82-.93.86-1.66l.06-1.01c.09-1.53-.8-2.84-1.93-2.84z"/><path class="cls-2" d="M7.82 18.79c-.98 0-1.77-.8-1.77-1.77V5.98c0-.98.8-1.77 1.77-1.77s1.77.8 1.77 1.77v11.04c0 .98-.8 1.77-1.77 1.77z"/><path class="cls-1" d="M7.82 4.82c.64 0 1.16.52 1.16 1.16v11.04a1.16 1.16 0 01-2.32 0V5.98c0-.64.52-1.16 1.16-1.16m0-1.22c-1.31 0-2.39 1.07-2.39 2.39v11.04c0 1.31 1.07 2.39 2.39 2.39s2.39-1.07 2.39-2.39V5.98c0-1.31-1.07-2.39-2.39-2.39z"/></g></svg>