<svg id="_イヤー_2" xmlns="http://www.w3.org/2000/svg" width="57.17" height="70"><defs><style>.cls-1{fill:#333}</style></defs><g id="_イヤー_1-2"><path class="cls-1" d="M0 0v70h57.17V0H0zm52.5 64.92H4.67V19.25h7.58v5.83c0 1.61 1.31 2.92 2.92 2.92s2.92-1.31 2.92-2.92v-5.83h7.58v5.83c0 1.61 1.31 2.92 2.92 2.92s2.92-1.31 2.92-2.92v-5.83h7.58v5.83c0 1.61 1.31 2.92 2.92 2.92s2.92-1.31 2.92-2.92v-5.83h7.58v45.67z"/><path class="cls-1" d="M31.4 36.22c.42 0 .78.15 1.09.46.31.31.46.67.46 1.09v16.84c0 .42-.15.78-.46 1.09-.31.31-.67.46-1.09.46h-2.62c-.42 0-.78-.15-1.09-.46s-.46-.67-.46-1.09V42.23h-.03l-3.88 2.68c-.27.18-.56.2-.85.04-.29-.16-.44-.4-.44-.72v-2.9c0-1.04.43-1.85 1.29-2.43l2.62-1.8c.84-.58 1.79-.87 2.84-.87h2.62zm12.35 28.7v-8.75h8.75l-8.75 8.75z"/></g></svg>