<svg xmlns="http://www.w3.org/2000/svg" width="76.44" height="60"><path d="M76.24 8.54a10.5 10.5 0 00-2.19-4.64 10.597 10.597 0 00-8.22-3.91H10.6a10.6 10.6 0 00-8.21 3.92A10.34 10.34 0 00.21 8.54C.07 9.21 0 9.9 0 10.6v38.8c0 1.49.32 2.92.88 4.21.52 1.23 1.29 2.35 2.23 3.28.24.24.47.45.73.67C5.67 59.08 8.04 60 10.61 60h55.23c2.56 0 4.94-.92 6.77-2.45a10.567 10.567 0 002.97-3.94c.56-1.3.87-2.72.87-4.21V10.6c0-.7-.07-1.39-.2-2.06zm-69.3-1.6c.95-.95 2.22-1.52 3.66-1.52h55.23a5.096 5.096 0 014.12 2.06L41 32.71c-.8.7-1.78 1.05-2.79 1.05s-1.98-.35-2.79-1.05L6.49 7.48c.13-.19.29-.36.45-.53zM5.42 49.39v-36.3l20.96 18.28L5.44 49.62c-.01-.07-.01-.15-.01-.23zm60.41 5.18H10.6c-.94 0-1.82-.25-2.56-.68l22.09-19.25 2.06 1.79c1.73 1.5 3.89 2.26 6.03 2.26s4.31-.76 6.04-2.26l2.06-1.79L68.4 53.89c-.75.43-1.63.68-2.57.68zm5.18-5.18c0 .08 0 .16-.01.23L50.06 31.37l20.95-18.28V49.4z" fill="#333"/></svg>