<svg xmlns="http://www.w3.org/2000/svg" width="107.93" height="60.18"><path d="M9.13 9.36L1.29 31.4C.51 33.26 0 36.27 0 37.7v8.69c0 2.36 1.93 4.3 4.3 4.3h5.14c.52 5.33 5.01 9.49 10.47 9.49s9.96-4.16 10.47-9.49h9.51V5.59H15.47c-2.36 0-5.22 1.7-6.34 3.77zm10.78 45.56c-2.91 0-5.26-2.36-5.26-5.26s2.36-5.26 5.26-5.26a5.26 5.26 0 010 10.52zm15.04-43.73v16.76H9.88l4.93-15.1c.43-.8 1.9-1.67 2.8-1.67h17.34zM45.91 0v50.69h31.01c.51 5.33 5 9.49 10.47 9.49s9.95-4.16 10.48-9.49h10.06V0H45.91zm41.48 54.92c-2.91 0-5.26-2.36-5.26-5.26s2.36-5.26 5.26-5.26a5.26 5.26 0 010 10.52z" fill="#333"/></svg>