<svg xmlns="http://www.w3.org/2000/svg" width="314.08" height="100"><g data-name="レイヤー 2"><g data-name="レイヤー 1"><path d="M0 94.48c9.67-6.06 15.11-13.43 17-18.88l10.2 4.84c.38.15.69.3.69.69s-.23.53-1.38 1C22.17 87.26 13 94.32 3.15 97.85zm32-61.84c0-1.07-.07-2.84-.15-4l10.2.23c.31 0 .92 0 .92.61a3 3 0 01-.61 1.39v7.59h30.52v4.22H1.53v-4.21H32zm10.35 59.23c0 6.67-2.23 8.13-9.05 8.13H20.87l-1.38-5.14a35.08 35.08 0 008 .92c4.29 0 4.45-1.38 4.45-4.37V72.92H9.44V49.59H65v23.33H42.35zM20 68.62h34.47V53.81H20zm43.6 29.46c-2.76-4.68-10.82-14-16.34-18.1l4.07-3.15a84.41 84.41 0 0121.55 14.5zm26.8-28.45c2.5-.49 11-2 11-13.94 0-11-8.74-12-10.92-12.28-.24 4.51-.72 13.61-3.3 20.25-1.49 3.79-3.38 6.53-7 6.53-5.19 0-9-5.6-9-11.76C71.11 49.73 78 41 89.68 41 98.21 41 106 45.34 106 56c0 13.21-11.6 15.27-14.9 15.87zM75.06 59.15c0 6.13 2.53 8.58 4.79 8.58 1.33 0 2.3-2.09 2.5-2.53 3.22-7.17 3.58-17.65 3.74-21.67-7.45 1.77-11 8-11 15.62" fill="#b062a3"/><path d="M152 32.62c2.62 7.73 11.94 19 26.37 26.3L176 62.17c-15.39-5.94-24.37-13.61-31.13-21.89-7.18 9.18-18.37 17.33-31.28 21.95l-2.59-3.1c14.7-7.6 23.61-18.44 26.85-26.51zm-23.2 27.54a43.12 43.12 0 00-.14-4.35l9.67.07a.79.79 0 01.55.76c0 .07-.28 1-.28 1.11v8.49c0 14.43-3.17 24.65-23.4 31.07L112.61 94c10.36-4.49 16.23-9.94 16.23-25.61zM160.74 56a.85.85 0 01.41.76 3.4 3.4 0 01-.21 1V97.1h-9.39V60.44c0-2.28-.14-3.8-.2-4.56zm43.36-8.06h-22.93v-3.79h22.93zm-1.73-9.52h-19.26v-3.8h19.26zm0 19.53h-19.26v-3.86h19.26zm0 9.6h-19.26v-3.8h19.26zm.55 6.08v20.64h-12V97h-7.8V73.63zm-12 16.84h5v-13h-5zm50.74-33.62v3.73h-10.43v3.31h10.42v3.73h-10.42v3.52h14.22v3.8h-36.66V59.13c-2.14 1.79-3.25 2.55-4.56 3.52l-2.27-3c.75-.83 6.55-7.25 8.07-15.33l8.7 2.14c.14.07.49.21.49.56a1.5 1.5 0 01-.63 1.1c-.07 0-.2.21-1.38 1.93h5.25a26.73 26.73 0 002.14-5.93l8.77 2.21c.14.06.41.13.41.48s-.21.41-.9.83-2.55 2.07-3 2.41h14.15v3.8h-12.8v3zM244 97.1a70.18 70.18 0 01-19-4.42 60.22 60.22 0 01-19.4 4.56l-2.55-3.59a52.57 52.57 0 0015.88-4.08c-5.25-3.38-6.56-5-7.6-6.28l5.46-1.86h-12v-3.8h37.29v3c-3.18 4.28-8.43 7.45-10.7 8.84a57.38 57.38 0 0014.77 3.86zm-31.14-61c0-.69-.07-1.38-.2-3.66l8.63.07c.2 0 .69.2.69.48a8.05 8.05 0 01-.42 1.38v3.32h6.56v-1.55a25.82 25.82 0 00-.21-3.66l8.5.07c.2 0 .82.07.82.62a2 2 0 01-.41 1v3.6h8.56v3.86h-8.56V45h-8.7v-3.41h-6.56V45h-8.7v-3.41h-8.35v-3.86h8.35zM223 53.88h-5.94v3H223zm-5.94 10H223v-3.3h-5.94zm0 7.25H223v-3.51h-5.94zm2.56 10.29A19.79 19.79 0 00225 86a20.19 20.19 0 004.76-4.55zm76.85-35.55h15.75V73h-16c-.56 5-1.45 9.19-4.56 13a61.88 61.88 0 0022.37 7.18l-1.86 3.66c-13-1.72-21.41-4.69-25.34-6.62-1.94 1.38-7.46 4.83-17.19 6.62l-2.56-3.59c2.07-.48 8.63-2 13.95-6.56a43.92 43.92 0 01-9.81-10.21l8.08-3a26.62 26.62 0 005.94 7.73c1.17-2.42 1.45-4.63 1.73-8.22h-15.56V45.87h15.74v-6.56h-17V36.9c-1.31 3-2.83 6.35-5.32 10.9v49.44h-8.76V60.92a45.25 45.25 0 01-4.84 5.25l-3.1-2.62c6.21-8.08 11.46-22.3 12.91-31.76l9.87 2.83a1.16 1.16 0 01.14.9h42.87v3.79h-17.45zm-9.32 3.87h-6.49v7.73h6.49zm-6.49 19.4h6.49v-7.8h-6.49zm15.81-11.67h6.7v-7.73h-6.7zm0 11.67h6.7v-7.8h-6.7zM62 6.27a.78.78 0 01.52.78.9.9 0 01-.85 1c-.76 0-4.87-2.24-7.73-5.45-.37-.43-.43-.47-.59-.47s-.19 0-.58.49a21.15 21.15 0 01-5.26 4.3A9.22 9.22 0 0145.1 8a.91.91 0 01-.86-1 .84.84 0 01.59-.78 18.66 18.66 0 004.57-2.74A18.77 18.77 0 0052.09.84 1.39 1.39 0 0153.3.23c.68 0 .87.2 1.71 1.11a20.08 20.08 0 005.23 4.11zM50.59 10.2c0 3.19-.7 5.37-2.51 7a5.15 5.15 0 01-2.26 1.23.88.88 0 01-.45-1.64 8 8 0 002.09-1.46 6.64 6.64 0 001.4-4V7.69c0-.23 0-.82.84-.82s.84.47.84.82zm7.3 7.55c0 .26 0 .82-.86.82s-.85-.43-.85-.82V7.67a.71.71 0 01.82-.82c.65 0 .92.24.92.82zm8.2-12.57a.64.64 0 01-.74-.7c0-.68.49-.7.74-.7h5a.64.64 0 01.74.7.63.63 0 01-.74.7zM74.56 3h-2.37a.63.63 0 01-.72-.63c0-.48.35-.62.72-.62h2.37v-.7c0-.41.2-.64.68-.64s.8.1.8.64v.7h3.39v-.7c0-.43.21-.66.7-.66s.82.1.82.66v.7h2c.27 0 .72.08.72.62s-.33.63-.72.63H81v.62c0 .23 0 .62-.7.62s-.82-.11-.82-.62V3H76v.62c0 .41-.19.62-.74.62a1.2 1.2 0 01-.45-.07 1.62 1.62 0 01-.23.77h2.65c.09-.17.52-.93.64-1.09a.59.59 0 01.51-.23c.38 0 .83.2.83.55a1.83 1.83 0 01-.37.77h3.76a.5.5 0 01.58.51c0 .41-.29.51-.58.51h-3.7v.91h3.29c.26 0 .53.08.53.45s-.2.47-.53.47H78.9v.87h3.29c.24 0 .53.08.53.45s-.39.47-.55.47H78.9v1H83a.53.53 0 01.62.53c0 .46-.33.54-.62.54h-8.44c-1.4 0-1.83-.37-1.83-1.81V7.71c-.31.37-.82 1-1.17 1a.74.74 0 01-.66-.82.73.73 0 01-.47.1h-3.81a.63.63 0 01-.74-.68c0-.7.51-.7.74-.7h3.81c.26 0 .8 0 .74.82.14-.16.84-.88 1-1a12.65 12.65 0 001.36-2.14c.2-.36.33-.59.7-.59a.74.74 0 01.37.12zm-7.94-.63a.63.63 0 01-.74-.68.63.63 0 01.74-.69h3.81a.63.63 0 01.74.68c0 .67-.5.68-.74.68zm0 8.36a.64.64 0 01-.74-.69.63.63 0 01.74-.68h3.81a.63.63 0 01.74.68c0 .69-.54.69-.76.69zm4.52 5.66c0 1.36-.37 1.77-1.76 1.77h-1.71c-1.34 0-1.75-.39-1.75-1.77v-2.53c0-1.34.37-1.77 1.77-1.77h1.69c1.37 0 1.76.41 1.76 1.77zM69.83 14c0-.32-.1-.63-.62-.63h-1.29a.55.55 0 00-.62.63v2.16a.55.55 0 00.62.62h1.29a.55.55 0 00.62-.62zm11-1.64c.37 0 1.28 0 1.28 1s-1.77 2.18-2.9 2.85A29.83 29.83 0 0083 17c.56.1.66.37.66.69a.7.7 0 01-.82.75A19.39 19.39 0 0177.5 17a21 21 0 01-5.5 1.43.67.67 0 01-.68-.73.59.59 0 01.59-.63 22.17 22.17 0 004-.84 10.41 10.41 0 01-2.18-1.59.76.76 0 01-.27-.51c0-.23.16-.43.49-.56h-1.53c-.37 0-.72-.14-.72-.61s.6-.58.72-.58zm-3.37-5.49V6h-2.8c-.35 0-.47.19-.47.48v.43zm0 .92h-3.27v.87h3.27zm0 1.79h-3.27v.5c0 .28.1.49.47.49h2.8zm-3.11 4a1.94 1.94 0 01.33.21 10.45 10.45 0 002.84 1.81c1.25-.56 2.69-1.44 2.69-1.85 0-.17-.24-.17-.31-.17zm22.37-1.14v5.1c0 .29 0 .8-.74.8s-.84-.22-.84-.8v-5.1H90.2a11.87 11.87 0 01-1.34 4.71c-.63 1.19-.9 1.26-1.21 1.26a.94.94 0 01-1-.89.9.9 0 01.18-.53 10.56 10.56 0 001.75-6.42V3.35c0-1.64.62-2.14 2.14-2.14h10.69c1.48 0 2.14.46 2.14 2.14v12.9c0 2.09-1 2.09-3.09 2.09-1 0-1.54 0-1.54-.88 0-.49.21-.8.74-.8.25 0 1.34.06 1.55 0 .39-.06.69-.23.69-.89v-3.33zM95.14 6V2.71h-4c-.58 0-.85.29-.85.87V6zm0 1.43H90.3V11h4.84zM96.72 6h5.22V3.58a.77.77 0 00-.88-.87h-4.34zm5.22 1.43h-5.22V11h5.22zm13.58 8.63c0 1.56-.58 2.08-2.06 2.08h-3.39c-1.44 0-2.08-.48-2.08-2.08V11.8c0-1.6.62-2.09 2.08-2.09h3.39c1.46 0 2.06.51 2.06 2.09zM114 12c0-.56-.25-.88-.85-.88h-2.71a.77.77 0 00-.88.88v3.82a.77.77 0 00.88.87h2.71c.58 0 .85-.29.85-.87zm9.07-6.13c0 1.56-.58 2.06-2.08 2.06h-8.89c-1.48 0-2.09-.5-2.09-2.06v-2.7c0-1.57.59-2.08 2.09-2.08h8.9c1.48 0 2.08.49 2.08 2.08zm-1.59-2.51a.77.77 0 00-.88-.88h-8.12c-.58 0-.85.29-.85.88v2.32c0 .59.27.86.85.86h8.12c.59 0 .88-.27.88-.86zm3.52 12.7c0 1.56-.6 2.08-2.08 2.08h-3.58c-1.42 0-2.07-.48-2.07-2.08V11.8c0-1.6.63-2.09 2.07-2.09h3.58c1.46 0 2.08.49 2.08 2.09zm-1.54-4c0-.56-.25-.88-.85-.88h-2.94c-.61 0-.86.32-.86.88v3.82a.76.76 0 00.86.87h2.94c.58 0 .85-.29.85-.87zm12.83-4.51a11.59 11.59 0 012.22-.21 14.33 14.33 0 013.6.48 4.63 4.63 0 013.33 4.74c0 5.15-5.82 5.15-7.22 5.15-.88 0-1.62 0-1.62-.89a.73.73 0 01.86-.74h1.07c1.23 0 5.08-.1 5.08-3.52 0-3.26-2.7-3.72-4.84-3.72a10.41 10.41 0 00-2.48.23v3.1c0 2 0 5.5-3.31 5.5a4 4 0 01-3.91-4.08c0-3.47 3.41-4.95 5.53-5.65V5.28h-4.88a.73.73 0 01-.46-.76c0-.82.66-.82.91-.82h4.46V1.62c0-.28 0-.9.84-.9s.85.55.85.9v2l2.83-.12a.75.75 0 01.87.8.71.71 0 01-.66.8c-.1 0-2.74.12-3 .12zm-1.67 2c-1.3.47-3.89 1.54-3.89 3.95a2.43 2.43 0 002.27 2.56c1.25 0 1.64-1.32 1.64-3.91zM141 1.64c1.25 0 5 3.19 5 4.41a1 1 0 01-1 .88c-.39 0-.42-.08-1-.93a8.67 8.67 0 00-3.19-2.85c-.25-.15-.56-.48-.56-.7a.83.83 0 01.19-.52.85.85 0 01.62-.29m11.42 6.75a25.55 25.55 0 01-1.21 8.37c-.35.95-.58 1.34-1.05 1.34a.89.89 0 01-.89-.83 1.66 1.66 0 01.17-.7 21 21 0 001.36-8.2V3c0-1.36.39-1.83 1.83-1.83h12.05c1.42 0 1.83.41 1.83 1.83v1.44c0 1.4-.39 1.81-1.83 1.81h-12.26zm0-3.47h11.83a.57.57 0 00.65-.64V3.17c0-.41-.22-.62-.65-.62H153.1a.54.54 0 00-.62.62zm7.08 2.15a.7.7 0 01.76-.78.69.69 0 01.74.78v1.3h3.88c1.22 0 1.81.39 1.81 1.79v6.21c0 1.4-.59 1.79-1.81 1.79h-9.19c-1.21 0-1.79-.37-1.79-1.79v-6.21c0-1.38.54-1.79 1.79-1.79h3.81zm-4 5.43h4V9.73h-3.42c-.39 0-.62.2-.62.65zm0 1.26v2.38c0 .41.17.62.62.62h3.42v-3zm9.67-1.26v-2.12c0-.41-.18-.65-.62-.65h-3.51v2.77zm0 1.26h-4.13v3h3.51a.55.55 0 00.62-.62zm8.55-11.87c0 .23-.37 2.33-.43 2.76a50.45 50.45 0 00-.37 5.57 38.92 38.92 0 00.39 5.49 9.94 9.94 0 01.16 1 .76.76 0 01-.88.78c-.5 0-.74-.21-.87-.78a34.81 34.81 0 01-.51-6.58 44.21 44.21 0 01.73-8.24.83.83 0 011.05-.76c.39.06.72.23.72.76m10.73 8.19c0 2.79 0 5.69-3.7 7.21a12.6 12.6 0 01-3.6.7.82.82 0 01-.88-.86c0-.58.35-.72 1.11-.8 4-.39 5-1.91 5.24-4.61V7.18h-5.45a7 7 0 01-1.64-.06c-.14 0-.47-.19-.47-.78 0-.79.57-.79 1.05-.79h6.47c0-.57-.1-3.06-.1-3.56s0-1.08.88-1.08.91.36.91 1.11c0 1.6 0 1.7.08 3.49l2.68-.12a.75.75 0 01.86.84c0 .76-.41.8-1.34.84l-2.16.07v2.94m19.37-8.27a.76.76 0 01.86-.86c.64 0 .88.32.88.86v3.06h2.68a.78.78 0 01.9.81.77.77 0 01-.9.84h-2.68v2.67c0 3.31-.92 5.92-4.21 7.49a12.48 12.48 0 01-4.59 1.21.92.92 0 01-1-.95c0-.65.29-.69 1.67-.88 4-.53 5.35-2.45 5.8-3.5a9.37 9.37 0 00.58-3.49V6.52h-7.1v4.65a.75.75 0 01-.86.86c-.62 0-.87-.27-.87-.86V6.52h-2.65a.78.78 0 01-.9-.82c0-.76.57-.83.9-.83H195v-3a.76.76 0 01.85-.86.77.77 0 01.88.86v3h7.1zm9.79 8.53c-.29 0-1 0-1-.88s.6-.91 1-.91H229c.29 0 1 0 1 .89s-.62.9-1 .9zm22.4 3.54c0 .76 0 1.42 1.11 1.58.78.09 3.14.09 4.11.09 2.53 0 3.78 0 4.4-.07s1.54-.12 2.14-.12a.71.71 0 01.78.82c0 .79-.53.87-2.08 1-1.17.08-4.17.08-6 .08a22.54 22.54 0 01-4.3-.18 2.5 2.5 0 01-2-2.88V2.06c0-.39.1-.85.9-.85s.91.27.91.85v5.57a42.78 42.78 0 008.76-2.94 7.54 7.54 0 011.74-.7 1 1 0 01.87 1c0 .33-.19.55-.74.82A50.9 50.9 0 01236 9.34zM245.52 1a.89.89 0 01-.06-.31c0-.43.47-.51.63-.51.31 0 .44.2.74.84a7.3 7.3 0 01.58 1.66c0 .52-.56.54-.62.54a.54.54 0 01-.53-.37c-.06-.13-.29-.82-.35-.95s-.33-.76-.39-.9m2.4-.21a.72.72 0 01-.06-.27c0-.35.39-.53.62-.53s.45.21.74.8a7.55 7.55 0 01.62 1.63.6.6 0 01-.62.57.67.67 0 01-.51-.27c-.05-.12-.19-.47-.4-1-.06-.13-.34-.76-.39-.89m5.84 2.69a.78.78 0 01-.88-.83.77.77 0 01.88-.84h10c.8 0 1.83.16 1.83 1.48 0 1-1.22 4-3.37 6.89a60.5 60.5 0 015.2 4.52c1.21 1.18 1.33 1.44 1.33 1.79a1 1 0 01-1 1c-.42 0-.58-.18-1.48-1.21a41.54 41.54 0 00-5-4.79c-3.37 3.88-7.32 6-8.1 6a1 1 0 01-.87-1c0-.41.12-.47 1.19-1 6.89-3.38 10.14-10.63 10.14-11.62 0-.39-.33-.41-.7-.41z" fill="#39c"/></g></g></svg>