<svg xmlns="http://www.w3.org/2000/svg" width="56" height="43.96"><path d="M55.86 6.26a7.81 7.81 0 00-1.6-3.4c-.17-.21-.34-.4-.53-.58A7.764 7.764 0 0048.24 0H7.77C5.63 0 3.68.87 2.28 2.28c-.19.19-.36.38-.53.58a7.7 7.7 0 00-1.6 3.4c-.1.49-.15 1-.15 1.51v28.42c0 1.09.23 2.14.64 3.08.38.9.95 1.72 1.63 2.41a7.78 7.78 0 005.5 2.28h40.46c1.88 0 3.62-.67 4.96-1.79a7.688 7.688 0 002.17-2.89c.41-.95.64-1.99.64-3.08V7.77c0-.51-.05-1.02-.14-1.51zM5.09 5.09c.69-.69 1.63-1.11 2.68-1.11h40.46a3.728 3.728 0 013.02 1.51L30.04 23.97a3.088 3.088 0 01-4.08 0L4.75 5.48c.09-.14.21-.27.33-.39zm-1.11 31.1V9.59l15.35 13.39L3.98 36.35v-.17zm44.26 3.79H7.77c-.69 0-1.33-.18-1.88-.5l16.19-14.1 1.51 1.31c1.26 1.1 2.85 1.66 4.41 1.66s3.16-.56 4.42-1.66l1.51-1.31 16.18 14.1c-.55.32-1.19.5-1.88.5zm3.79-3.79v.17L36.69 22.99 52.04 9.6v26.59z" fill="#fff"/></svg>