<svg xmlns="http://www.w3.org/2000/svg" width="43.14" height="36.67"><path d="M21.57 35.24c-11.1 0-20.14-6.13-20.14-13.67V1.68c0-.14.11-.25.25-.25h39.78c.14 0 .25.11.25.25v19.89c0 7.54-9.03 13.67-20.14 13.67z" fill="#fff"/><path d="M40.28 2.86v18.71c0 6.63-8.57 12.24-18.71 12.24S2.86 28.2 2.86 21.57V2.86h37.42M41.46 0H1.68C.75 0 0 .75 0 1.68v19.89c0 8.34 9.66 15.1 21.57 15.1s21.57-6.76 21.57-15.1V1.68c0-.93-.75-1.68-1.68-1.68z" fill="#333"/><path d="M3.5 21.03c6.25 0 11.32 5.07 11.32 11.32m24.81-11.32c-6.25 0-11.32 5.07-11.32 11.32" stroke-linecap="round" fill="none" stroke="#333" stroke-miterlimit="10" stroke-width="2.86"/><path d="M.15 10.35H42.7m-34.93 0V.57m6.9 9.78V.57m6.9 9.78V.57m6.9 9.78V.57m6.9 9.78V.57" fill="none" stroke="#333" stroke-miterlimit="10" stroke-width="2.86"/></svg>