<svg id="_イヤー_2" xmlns="http://www.w3.org/2000/svg" width="19.38" height="15.69"><defs><style>.cls-1{fill:#ed7fa5}.cls-2{fill:#fff}</style></defs><g id="_イヤー_1-2"><path class="cls-2" d="M9.69 15.07c-4.75 0-8.61-2.62-8.61-5.85V.72c0-.06.05-.11.11-.11H18.2c.06 0 .11.05.11.11v8.51c0 3.22-3.86 5.85-8.61 5.85z"/><path class="cls-1" d="M17.69 1.22v8.01c0 2.84-3.66 5.23-8 5.23s-8-2.4-8-5.23V1.22h16M18.2 0H1.18C.78 0 .46.32.46.72v8.51c0 3.57 4.13 6.46 9.23 6.46s9.23-2.89 9.23-6.46V.72c0-.4-.32-.72-.72-.72z"/><path d="M1.96 9c2.68 0 4.84 2.17 4.84 4.84M17.42 9c-2.68 0-4.84 2.17-4.84 4.84" fill="none" stroke="#ed7fa5" stroke-linecap="round" stroke-miterlimit="10" stroke-width="1.22"/><path class="cls-2" d="M.61.7C.61.64.63.61.64.6H2.3C4 .61 5.38 2.25 5.38 4.27c0 1.55-.83 2.94-2.07 3.46-1.03.43-1.91.95-2.67 1.57L.61.7z"/><path class="cls-1" d="M2.31 1.22c1.34 0 2.47 1.4 2.47 3.05 0 1.31-.68 2.47-1.7 2.89-.68.28-1.29.6-1.85.96v-6.9h1.08m0-1.22H.6C.27 0 0 .31 0 .7v8.75c0 .38.27.7.6.7.88-.82 1.89-1.41 2.95-1.85C4.97 7.71 6 6.12 6 4.28 6 1.92 4.34 0 2.31 0z"/><path class="cls-2" d="M18.76 9.32c-.76-.63-1.65-1.16-2.7-1.59-1.24-.52-2.07-1.91-2.07-3.46 0-2.02 1.38-3.66 3.08-3.66h1.69v8.71z"/><path class="cls-1" d="M18.15 1.22v6.9c-.56-.36-1.18-.68-1.85-.96-1.01-.42-1.7-1.59-1.7-2.89 0-1.65 1.13-3.05 2.47-3.05h1.08M18.77 0h-1.71c-2.03 0-3.69 1.92-3.69 4.27 0 1.85 1.02 3.43 2.45 4.02 1.06.44 2.07 1.03 2.95 1.85.33 0 .6-.31.6-.7V.7c0-.38-.27-.7-.6-.7z"/><path class="cls-2" d="M4.75 4.92l.02-1.56 2.97.02c.36 0 .65.29.65.65v.24c0 .36-.29.65-.65.65H4.75z"/><path class="cls-1" d="M7.73 3.99s.04.02.04.04v.24s-.02.04-.04.04H5.37v-.32h2.36m0-1.22H4.74c-.33 0-.59.27-.59.59v1.58c0 .33.27.59.59.59h2.99c.69 0 1.26-.57 1.26-1.26v-.24c0-.69-.57-1.26-1.26-1.26z"/><path class="cls-2" d="M11.64 4.92c-.36 0-.65-.29-.65-.65v-.24c0-.36.29-.65.65-.65h2.99l-.02 1.54h-2.97z"/><path class="cls-1" d="M14 3.99v.32h-2.36s-.04-.02-.04-.04v-.24s.02-.04.04-.04H14m.63-1.22h-2.99c-.69 0-1.26.57-1.26 1.26v.24c0 .69.57 1.26 1.26 1.26h2.99c.33 0 .59-.27.59-.59V3.36c0-.33-.27-.59-.59-.59z"/></g></svg>