<svg id="_イヤー_2" xmlns="http://www.w3.org/2000/svg" width="18.76" height="15.94"><defs><style>.cls-3{fill:none;stroke:#ed7fa5;stroke-miterlimit:10;stroke-width:1.24px}</style></defs><g id="_イヤー_1-2"><path d="M9.38 15.32c-4.83 0-8.76-2.67-8.76-5.94V.73C.62.67.67.62.73.62h17.29c.06 0 .11.05.11.11v8.65c0 3.28-3.93 5.94-8.76 5.94z" fill="#fff"/><path d="M17.51 1.24v8.14c0 2.88-3.72 5.32-8.13 5.32s-8.14-2.44-8.14-5.32V1.24h16.27M18.02 0H.73C.33 0 0 .33 0 .73v8.65c0 3.63 4.2 6.56 9.38 6.56s9.38-2.94 9.38-6.56V.73c0-.4-.33-.73-.73-.73z" fill="#ed7fa5"/><path d="M1.52 9.14c2.72 0 4.92 2.2 4.92 4.92m10.79-4.92c-2.72 0-4.92 2.2-4.92 4.92" stroke-linecap="round" fill="none" stroke="#ed7fa5" stroke-miterlimit="10" stroke-width="1.24"/><path class="cls-3" d="M.07 4.5h18.5M3.38 4.5V.25m3 4.25V.25m3 4.25V.25m3 4.25V.25m3 4.25V.25"/></g></svg>