<svg id="_イヤー_2" xmlns="http://www.w3.org/2000/svg" width="44.57" height="36.08"><defs><style>.cls-1{fill:#fff}.cls-2{fill:#333}</style></defs><g id="_イヤー_1-2"><path class="cls-1" d="M22.28 34.67c-10.93 0-19.81-6.03-19.81-13.45V1.65c0-.14.11-.25.25-.25h39.13c.14 0 .25.11.25.25v19.57c0 7.42-8.89 13.45-19.81 13.45z"/><path class="cls-2" d="M40.69 2.82v18.4c0 6.53-8.43 12.04-18.41 12.04s-18.4-5.51-18.4-12.04V2.82h36.81M41.85 0H2.72c-.91 0-1.65.74-1.65 1.65v19.57c0 8.2 9.5 14.86 21.22 14.86s21.22-6.65 21.22-14.86V1.65c0-.91-.74-1.65-1.65-1.65z"/><path d="M4.51 20.69c6.15 0 11.14 4.99 11.14 11.14m24.41-11.14c-6.15 0-11.14 4.99-11.14 11.14" fill="none" stroke="#333" stroke-linecap="round" stroke-miterlimit="10" stroke-width="2.82"/><path class="cls-1" d="M1.41 1.6c0-.1.03-.16.05-.19h3.85c3.9 0 7.08 3.78 7.08 8.42 0 3.57-1.91 6.76-4.76 7.95-2.41 1-4.45 2.21-6.21 3.66V1.6z"/><path class="cls-2" d="M5.31 2.82c3.08 0 5.67 3.21 5.67 7.01 0 3.01-1.57 5.68-3.9 6.65-1.56.65-2.97 1.38-4.26 2.2V2.82h2.49m0-2.82H1.38C.62 0 0 .72 0 1.6v20.14c0 .88.62 1.6 1.38 1.6 2.01-1.89 4.34-3.24 6.78-4.26 3.27-1.37 5.63-5.01 5.63-9.25C13.79 4.42 9.97 0 5.31 0z"/><path class="cls-1" d="M43.16 21.45c-1.76-1.45-3.8-2.66-6.21-3.66-2.85-1.19-4.76-4.39-4.76-7.95 0-4.64 3.18-8.42 7.08-8.42h3.85s.05.1.05.19v19.84z"/><path class="cls-2" d="M41.75 2.82v15.87c-1.29-.82-2.71-1.55-4.26-2.2-2.33-.97-3.9-3.65-3.9-6.65 0-3.8 2.6-7.01 5.67-7.01h2.49M43.18.01h-3.92c-4.67 0-8.49 4.42-8.49 9.83 0 4.25 2.36 7.89 5.63 9.25 2.44 1.02 4.77 2.37 6.78 4.26.76 0 1.38-.72 1.38-1.6V1.6c0-.88-.62-1.6-1.38-1.6z"/><path class="cls-1" d="M10.92 11.32l.04-3.59 6.83.04c.83 0 1.5.67 1.5 1.5v.55c0 .83-.67 1.5-1.5 1.5h-6.87z"/><path class="cls-2" d="M17.79 9.18s.09.05.09.09v.55s-.05.09-.09.09h-5.42v-.73h5.42m0-2.82h-6.87c-.75 0-1.37.61-1.37 1.37v3.63c0 .75.61 1.37 1.37 1.37h6.87c1.6 0 2.91-1.31 2.91-2.91v-.55c0-1.6-1.31-2.91-2.91-2.91z"/><path class="cls-1" d="M26.78 11.32c-.83 0-1.5-.67-1.5-1.5v-.55c0-.83.67-1.5 1.5-1.5h6.87l-.04 3.55h-6.83z"/><path class="cls-2" d="M32.2 9.18v.73h-5.42s-.09-.05-.09-.09v-.55s.05-.09.09-.09h5.42m1.45-2.82h-6.87a2.92 2.92 0 00-2.91 2.91v.55c0 1.6 1.31 2.91 2.91 2.91h6.87c.75 0 1.37-.61 1.37-1.37V7.73c0-.75-.61-1.37-1.37-1.37z"/></g></svg>