<svg id="_イヤー_2" xmlns="http://www.w3.org/2000/svg" width="100" height="100"><defs><style>.cls-2,.cls-3{fill:&quot;&quot;}.cls-3{stroke:#fff;stroke-miterlimit:10;stroke-width:7px}</style></defs><g id="_イヤー_1-2"><rect x="1" y="1" width="98" height="98" rx="9" ry="9"/><path class="cls-2" d="M90 2c4.41 0 8 3.59 8 8v80c0 4.41-3.59 8-8 8H10c-4.41 0-8-3.59-8-8V10c0-4.41 3.59-8 8-8h80m0-2H10C4.5 0 0 4.5 0 10v80c0 5.5 4.5 10 10 10h80c5.5 0 10-4.5 10-10V10c0-5.5-4.5-10-10-10z"/><path class="cls-3" d="M50.5 14.75V40"/><path class="cls-2" d="M39.12 13h22.75v3.5H39.12z"/><path class="cls-3" d="M50.5 19.4V40"/><path class="cls-2" d="M41.01 30.55l9.49-9.49 9.49 9.49v-8.06L50.5 13l-9.49 9.49v8.06zM23.3 50.96c-.19 0-.35-.07-.48-.2s-.2-.29-.2-.48.07-.35.2-.48.29-.2.48-.2h8.92c.19 0 .35.07.48.2s.2.29.2.48-.07.35-.2.48-.29.2-.48.2h-3.48c-.12 0-.18.06-.18.18V63.4c0 .21-.08.4-.23.56-.15.16-.34.24-.57.24s-.42-.08-.57-.24a.804.804 0 01-.23-.56V51.14c0-.12-.06-.18-.18-.18H23.3zm21.79 11.47c-1.13 1.31-2.68 1.97-4.65 1.97s-3.52-.66-4.65-1.97c-1.13-1.31-1.69-3.16-1.69-5.53s.56-4.22 1.69-5.53c1.13-1.31 2.68-1.97 4.65-1.97s3.52.66 4.65 1.97c1.13 1.31 1.69 3.16 1.69 5.53s-.56 4.22-1.69 5.53zM43.93 52.3c-.81-1.04-1.97-1.56-3.49-1.56s-2.68.52-3.49 1.56-1.21 2.57-1.21 4.6.4 3.56 1.21 4.6c.81 1.04 1.97 1.56 3.49 1.56s2.68-.52 3.49-1.56 1.21-2.57 1.21-4.6-.4-3.56-1.21-4.6zm6.72 11.66c-.15.16-.34.24-.57.24s-.42-.08-.57-.24a.804.804 0 01-.23-.56V50.84c0-.32.11-.6.32-.85.21-.25.48-.39.8-.43 1.03-.11 2.01-.16 2.94-.16 1.81 0 3.19.38 4.13 1.15.94.77 1.41 1.86 1.41 3.29 0 1.55-.47 2.72-1.42 3.52-.95.8-2.32 1.2-4.12 1.2-.72 0-1.48-.03-2.28-.1-.12 0-.18.05-.18.14v4.8c0 .21-.08.4-.23.56zm.23-12.9v5.88c0 .11.06.17.18.2.64.09 1.36.14 2.16.14 1.32 0 2.33-.29 3.03-.86s1.05-1.39 1.05-2.46-.34-1.88-1.03-2.43-1.7-.83-3.05-.83c-.72 0-1.44.05-2.16.16-.12.03-.18.09-.18.2zm11.12 9c-.13.16-.31.24-.52.25-.21 0-.39-.06-.54-.21a.773.773 0 01-.26-.54c-.01-.21.05-.4.2-.56 1.01-1.16 2.06-2.41 3.14-3.74s1.82-2.17 2.23-2.5c.41-.33.92-.5 1.55-.5.59 0 1.09.15 1.51.44.42.29 1.32 1.1 2.71 2.42 1.8 1.75 3.87 3.65 6.2 5.72.17.15.27.33.28.54s-.05.41-.2.58c-.15.17-.33.27-.55.28s-.41-.05-.57-.2a223.02 223.02 0 01-6.66-6.16c-.96-.92-1.58-1.49-1.87-1.7-.29-.21-.58-.32-.89-.32s-.59.12-.86.36-.79.85-1.58 1.82c-1.51 1.85-2.61 3.19-3.32 4.02zM48.64 86.04c.19.05.32.16.41.32.09.16.1.33.03.5-.19.44-.5.61-.94.5-1.48-.41-2.78-.97-3.9-1.67s-1.98-1.48-2.58-2.33c-.05-.08-.11-.07-.18.02-.6.85-1.46 1.63-2.57 2.33-1.11.7-2.4 1.25-3.85 1.65-.2.05-.4.03-.59-.06-.19-.09-.34-.24-.45-.44a.585.585 0 01-.01-.5c.07-.16.2-.27.39-.32 1.69-.43 3.07-1.02 4.13-1.78s1.73-1.6 2.01-2.52c.03-.12-.01-.18-.12-.18H35.2c-.12 0-.21-.01-.26-.04-.09-.03-.14 0-.14.08-.28 2.12-.93 3.87-1.94 5.24-.13.17-.31.27-.52.3s-.41-.03-.58-.18a.746.746 0 01-.27-.54c-.02-.23.03-.43.15-.6 1.21-1.72 1.82-4.17 1.82-7.36v-3.8c0-.31.11-.57.33-.79.22-.22.48-.33.79-.33h12.34c.31 0 .57.11.8.33.23.22.34.48.34.79v2.54c0 .31-.11.57-.34.8-.23.23-.49.34-.8.34h-4.88s-.04 0-.04.03 0 .04.02.05c.23.19.34.41.34.68v1c0 .11.05.16.16.16h5.76c.17 0 .32.06.45.19s.19.28.19.47a.618.618 0 01-.64.64h-5.66c-.11 0-.15.06-.12.18.28.92.95 1.76 2.01 2.52 1.06.76 2.44 1.35 4.13 1.78zm-.16-14H32.56c-.17 0-.32-.06-.45-.19a.626.626 0 01-.19-.47c0-.17.06-.32.18-.45a.59.59 0 01.46-.19h15.92c.19 0 .34.06.46.19s.18.28.18.45c0 .19-.06.34-.19.47-.13.13-.28.19-.45.19zm-7.8 7.06c0-.27.11-.49.34-.68.01-.01.02-.03.02-.05s-.01-.03-.04-.03h-5.88c-.11 0-.16.05-.16.16v.54c0 .25-.01.63-.04 1.14 0 .09.05.13.16.1.01 0 .03 0 .06-.01h5.38c.11 0 .16-.05.16-.16v-1zm-5.72-4.2v2.06c0 .12.05.18.16.18h11.26c.12 0 .18-.06.18-.18V74.9c0-.11-.06-.16-.18-.16H35.12c-.11 0-.16.05-.16.16zm18.88 5.44c-.15.08-.3.1-.47.05a.574.574 0 01-.37-.29.616.616 0 01-.05-.48.66.66 0 01.29-.4l10.26-6.48s.02 0 .02-.02l-.02-.02h-8.7c-.17 0-.32-.06-.45-.19s-.19-.28-.19-.47.06-.34.18-.46.27-.18.46-.18h10.76c.19 0 .35.07.48.2s.21.29.22.46c.03.45-.15.79-.52 1l-7.28 4.38v.04h.04c1.39-.36 2.63-.54 3.72-.54 3.92 0 5.88 1.45 5.88 4.36 0 1.85-.66 3.28-1.97 4.27s-3.2 1.49-5.67 1.49c-1.88 0-3.29-.27-4.24-.82-.95-.55-1.42-1.34-1.42-2.38 0-.77.38-1.43 1.14-1.98s1.85-.82 3.26-.82c2.8 0 4.2.96 4.2 2.88 0 .41-.1.88-.3 1.4-.01.03 0 .06.02.09.03.03.05.04.08.03 2.17-.57 3.26-1.91 3.26-4 0-1.11-.38-1.93-1.14-2.48-.76-.55-1.95-.82-3.56-.82-2.55 0-5.19.73-7.92 2.18zm7.76 5.24c.28-.56.42-1.07.42-1.52 0-1.15-.97-1.72-2.9-1.72-.89 0-1.58.15-2.07.45-.49.3-.73.66-.73 1.07 0 .59.34 1.05 1.03 1.39.69.34 1.72.51 3.11.51.41 0 .71 0 .9-.02.12 0 .2-.05.24-.16z"/></g></svg>